<svg xmlns="http://www.w3.org/2000/svg" xmlns:xlink="http://www.w3.org/1999/xlink" width="500" zoomAndPan="magnify" viewBox="0 0 375 374.999991" height="500" preserveAspectRatio="xMidYMid meet" version="1.0"><defs><clipPath id="9cf1d370da"><path d="M 113.882812 29.179688 L 260.882812 29.179688 L 260.882812 345.679688 L 113.882812 345.679688 Z M 113.882812 29.179688 " clip-rule="nonzero"/></clipPath></defs><path fill="#ffffff" d="M 208.742188 225.15625 C 209.464844 223.605469 210.1875 222.054688 211.0625 220.296875 C 211.941406 218.539062 212.976562 216.574219 214.421875 213.886719 C 215.867188 211.199219 217.726562 207.789062 219.273438 204.839844 C 220.824219 201.894531 222.0625 199.414062 223.972656 195.898438 C 225.882812 192.382812 228.464844 187.835938 230.738281 183.699219 C 233.007812 179.566406 234.96875 175.84375 236.832031 172.378906 C 238.6875 168.914062 240.441406 165.710938 242.046875 162.660156 C 243.644531 159.609375 245.089844 156.714844 246.535156 153.457031 C 247.984375 150.203125 249.429688 146.585938 250.769531 142.863281 C 252.113281 139.140625 253.351562 135.316406 254.179688 132.675781 C 255.003906 130.042969 255.414062 128.59375 255.832031 127.097656 C 256.242188 125.597656 256.65625 124.042969 257.066406 121.875 C 257.480469 119.703125 257.894531 116.914062 258.152344 113.707031 C 258.410156 110.503906 258.515625 106.882812 258.566406 104.144531 C 258.617188 101.40625 258.617188 99.542969 258.464844 97.582031 C 258.308594 95.617188 258 93.546875 257.585938 91.425781 C 257.171875 89.308594 256.65625 87.136719 256.035156 84.914062 C 255.414062 82.691406 254.691406 80.417969 253.558594 77.679688 C 252.421875 74.9375 250.871094 71.734375 249.632812 69.199219 C 248.394531 66.667969 247.464844 64.804688 246.535156 63.046875 C 245.609375 61.292969 244.679688 59.636719 243.644531 57.980469 C 242.613281 56.328125 241.476562 54.675781 240.339844 53.125 C 239.207031 51.570312 238.066406 50.125 236.984375 48.988281 C 235.898438 47.851562 234.867188 47.023438 233.882812 46.300781 C 232.90625 45.578125 231.976562 44.957031 230.941406 44.492188 C 229.910156 44.023438 228.773438 43.714844 227.484375 43.457031 C 226.191406 43.199219 224.746094 42.992188 223.457031 42.785156 C 222.167969 42.578125 221.03125 42.371094 219.949219 42.164062 C 218.863281 41.957031 217.828125 41.753906 215.09375 40.71875 C 212.355469 39.683594 207.917969 37.824219 204.714844 36.585938 C 201.515625 35.34375 199.550781 34.722656 198.15625 34.363281 C 196.765625 34 195.9375 33.894531 194.179688 33.84375 C 192.425781 33.789062 189.742188 33.789062 188.039062 33.894531 C 186.332031 34 185.609375 34.203125 184.835938 34.410156 C 184.0625 34.621094 183.234375 34.824219 182.359375 35.085938 C 181.480469 35.34375 180.550781 35.652344 179.207031 35.859375 C 177.867188 36.066406 176.109375 36.167969 174.097656 36.324219 C 172.082031 36.480469 169.8125 36.6875 167.902344 36.996094 C 165.992188 37.308594 164.441406 37.71875 162.480469 38.234375 C 160.519531 38.753906 158.144531 39.375 156.335938 39.992188 C 154.527344 40.613281 153.289062 41.234375 152.359375 41.753906 C 151.429688 42.269531 150.8125 42.679688 150.449219 43.042969 C 150.085938 43.40625 149.984375 43.714844 149.625 44.179688 C 149.261719 44.644531 148.644531 45.265625 148.175781 45.785156 C 147.710938 46.300781 147.40625 46.714844 146.941406 47.28125 C 146.476562 47.851562 145.855469 48.574219 145.234375 49.246094 C 144.613281 49.921875 143.996094 50.539062 143.117188 51.109375 C 142.238281 51.675781 141.105469 52.191406 139.761719 53.070312 C 138.417969 53.953125 136.871094 55.191406 135.632812 56.226562 C 134.390625 57.257812 133.464844 58.085938 132.378906 59.277344 C 131.292969 60.464844 130.058594 62.015625 128.714844 63.980469 C 127.371094 65.945312 125.925781 68.324219 124.789062 70.390625 C 123.65625 72.457031 122.828125 74.214844 121.949219 76.335938 C 121.070312 78.453125 120.140625 80.933594 119.417969 83.3125 C 118.695312 85.691406 118.183594 87.964844 117.664062 90.726562 C 117.148438 93.484375 116.632812 96.734375 116.375 99.984375 C 116.117188 103.238281 116.117188 106.496094 116.167969 108.957031 C 116.21875 111.417969 116.320312 113.078125 116.476562 114.941406 C 116.632812 116.808594 116.839844 118.875 117.097656 120.738281 C 117.355469 122.597656 117.664062 124.253906 118.335938 126.785156 C 119.007812 129.320312 120.039062 132.730469 121.125 136.039062 C 122.207031 139.34375 123.34375 142.550781 124.585938 145.757812 C 125.820312 148.960938 127.164062 152.167969 128.40625 154.957031 C 129.640625 157.746094 130.78125 160.128906 132.171875 163.023438 C 133.566406 165.914062 135.21875 169.328125 137.027344 172.84375 C 138.832031 176.359375 140.796875 179.976562 142.65625 183.390625 C 144.511719 186.800781 146.265625 190.003906 148.074219 193.3125 C 149.882812 196.621094 151.738281 200.035156 153.445312 203.136719 C 155.148438 206.238281 156.699219 209.027344 158.453125 212.285156 C 160.207031 215.539062 162.171875 219.261719 164.132812 222.984375 C 163.203125 225.050781 162.273438 227.121094 161.449219 229.136719 C 160.621094 231.152344 159.898438 233.117188 158.609375 236.527344 C 157.316406 239.941406 155.457031 244.796875 154.011719 248.726562 C 152.566406 252.65625 151.535156 255.652344 150.863281 257.617188 C 150.191406 259.585938 149.882812 260.511719 149.574219 261.339844 C 149.261719 262.167969 148.953125 262.890625 148.539062 264.183594 C 148.128906 265.476562 147.609375 267.339844 147.25 268.835938 C 146.886719 270.335938 146.679688 271.472656 146.371094 272.921875 C 146.0625 274.367188 145.648438 276.125 145.183594 278.242188 C 144.71875 280.363281 144.203125 282.84375 143.84375 285.015625 C 143.480469 287.1875 143.273438 289.046875 143.171875 291.21875 C 143.066406 293.390625 143.066406 295.871094 143.066406 297.992188 C 143.066406 300.109375 143.066406 301.867188 143.171875 303.523438 C 143.273438 305.175781 143.480469 306.726562 143.890625 308.949219 C 144.304688 311.171875 144.925781 314.066406 145.648438 316.390625 C 146.371094 318.722656 147.199219 320.476562 148.023438 321.976562 C 148.851562 323.476562 149.675781 324.714844 150.863281 326.113281 C 152.050781 327.507812 153.601562 329.058594 155.199219 330.402344 C 156.800781 331.746094 158.453125 332.882812 159.796875 333.707031 C 161.136719 334.539062 162.171875 335.054688 163.410156 335.519531 C 164.648438 335.984375 166.097656 336.398438 167.4375 336.65625 C 168.78125 336.914062 170.019531 337.015625 171.15625 336.96875 C 172.289062 336.914062 173.324219 336.707031 174.253906 336.398438 C 175.179688 336.089844 176.007812 335.671875 176.832031 335.261719 C 177.351562 335.363281 177.867188 335.46875 178.589844 335.726562 C 179.3125 335.984375 180.242188 336.398438 181.429688 337.015625 C 182.617188 337.636719 184.0625 338.46875 185.765625 339.136719 C 187.46875 339.808594 189.429688 340.328125 192.015625 340.636719 C 194.59375 340.949219 197.796875 341.050781 199.9375 341.074219 C 202.078125 341.101562 203.160156 341.050781 204.867188 340.894531 C 206.566406 340.738281 208.894531 340.480469 210.730469 340.148438 C 212.5625 339.808594 213.90625 339.394531 215.609375 338.726562 C 217.3125 338.050781 219.375 337.121094 221.03125 336.242188 C 222.683594 335.363281 223.921875 334.539062 225.316406 333.402344 C 226.710938 332.261719 228.261719 330.816406 229.601562 329.316406 C 230.941406 327.816406 232.082031 326.265625 233.058594 324.714844 C 234.039062 323.167969 234.867188 321.613281 235.644531 319.339844 C 236.414062 317.066406 237.140625 314.066406 237.601562 311.070312 C 238.066406 308.070312 238.273438 305.070312 238.378906 302.332031 C 238.480469 299.59375 238.480469 297.113281 238.378906 294.941406 C 238.273438 292.769531 238.066406 290.910156 237.757812 288.996094 C 237.445312 287.085938 237.035156 285.121094 236.46875 283.050781 C 235.898438 280.984375 235.175781 278.8125 234.402344 276.640625 C 233.628906 274.46875 232.800781 272.300781 231.71875 269.714844 C 230.632812 267.128906 229.292969 264.132812 228.050781 261.546875 C 226.8125 258.964844 225.675781 256.792969 224.542969 254.671875 C 223.40625 252.554688 222.269531 250.484375 221.183594 248.417969 C 220.097656 246.351562 219.066406 244.28125 217.984375 242.214844 C 216.898438 240.148438 215.765625 238.082031 214.472656 235.753906 C 213.183594 233.425781 211.738281 230.839844 210.753906 229.03125 C 209.773438 227.226562 209.257812 226.191406 208.742188 225.15625 Z M 184.578125 183.285156 C 187.054688 178.839844 189.535156 174.394531 191.550781 170.207031 C 193.5625 166.019531 195.113281 162.089844 196.453125 158.9375 C 197.796875 155.785156 198.929688 153.40625 200.328125 149.582031 C 201.71875 145.757812 203.371094 140.484375 204.558594 135.988281 C 205.746094 131.488281 206.46875 127.765625 206.988281 124.304688 C 207.5 120.839844 207.8125 117.636719 207.917969 114.121094 C 208.019531 110.605469 207.917969 106.78125 207.65625 103.679688 C 207.398438 100.578125 206.988281 98.199219 206.210938 95.769531 C 205.4375 93.339844 204.300781 90.859375 203.214844 88.949219 C 202.132812 87.035156 201.101562 85.691406 199.808594 84.292969 C 198.519531 82.898438 196.96875 81.449219 195.164062 80.105469 C 193.355469 78.761719 191.292969 77.523438 189.226562 76.644531 C 187.160156 75.765625 185.09375 75.25 183.132812 74.9375 C 181.171875 74.628906 179.3125 74.523438 177.402344 74.578125 C 175.492188 74.628906 173.527344 74.835938 171.878906 75.144531 C 170.226562 75.457031 168.882812 75.867188 167.695312 76.335938 C 166.507812 76.800781 165.476562 77.316406 164.441406 78.039062 C 163.410156 78.761719 162.378906 79.695312 161.449219 80.933594 C 160.519531 82.175781 159.691406 83.726562 158.917969 85.433594 C 158.144531 87.136719 157.421875 89 156.75 91.171875 C 156.078125 93.339844 155.457031 95.824219 155.046875 98.203125 C 154.632812 100.578125 154.425781 102.851562 154.324219 104.917969 C 154.21875 106.988281 154.21875 108.847656 154.324219 111.175781 C 154.425781 113.5 154.632812 116.292969 155.199219 119.394531 C 155.769531 122.496094 156.699219 125.90625 157.730469 129.371094 C 158.761719 132.832031 159.898438 136.351562 161.347656 140.070312 C 162.789062 143.789062 164.546875 147.722656 166.300781 151.441406 C 168.054688 155.164062 169.808594 158.679688 171.929688 162.710938 C 174.046875 166.742188 176.523438 171.292969 178.695312 174.808594 C 180.859375 178.324219 182.71875 180.804688 184.578125 183.285156 Z M 184.578125 183.285156 " fill-opacity="1" fill-rule="evenodd"/><g clip-path="url(#9cf1d370da)"><path fill="#630e2b" d="M 208.742188 225.15625 C 209.464844 223.605469 210.1875 222.054688 211.0625 220.296875 C 211.941406 218.539062 212.976562 216.574219 214.421875 213.886719 C 215.867188 211.199219 217.726562 207.789062 219.273438 204.839844 C 220.824219 201.894531 222.0625 199.414062 223.972656 195.898438 C 225.882812 192.382812 228.464844 187.835938 230.738281 183.699219 C 233.007812 179.566406 234.96875 175.84375 236.832031 172.378906 C 238.6875 168.914062 240.441406 165.710938 242.046875 162.660156 C 243.644531 159.609375 245.089844 156.714844 246.535156 153.457031 C 247.984375 150.203125 249.429688 146.585938 250.769531 142.863281 C 252.113281 139.140625 253.351562 135.316406 254.179688 132.675781 C 255.003906 130.042969 255.414062 128.59375 255.832031 127.097656 C 256.242188 125.597656 256.65625 124.042969 257.066406 121.875 C 257.480469 119.703125 257.894531 116.914062 258.152344 113.707031 C 258.410156 110.503906 258.515625 106.882812 258.566406 104.144531 C 258.617188 101.40625 258.617188 99.542969 258.464844 97.582031 C 258.308594 95.617188 258 93.546875 257.585938 91.425781 C 257.171875 89.308594 256.65625 87.136719 256.035156 84.914062 C 255.414062 82.691406 254.691406 80.417969 253.558594 77.679688 C 252.421875 74.9375 250.871094 71.734375 249.632812 69.199219 C 248.394531 66.667969 247.464844 64.804688 246.535156 63.046875 C 245.609375 61.292969 244.679688 59.636719 243.644531 57.980469 C 242.613281 56.328125 241.476562 54.675781 240.339844 53.125 C 239.207031 51.570312 238.066406 50.125 236.984375 48.988281 C 235.898438 47.851562 234.867188 47.023438 233.882812 46.300781 C 232.90625 45.578125 231.976562 44.957031 230.941406 44.492188 C 229.910156 44.023438 228.773438 43.714844 227.484375 43.457031 C 226.191406 43.199219 224.746094 42.992188 223.457031 42.785156 C 222.167969 42.578125 221.03125 42.371094 219.949219 42.164062 C 218.863281 41.957031 217.828125 41.753906 215.09375 40.71875 C 212.355469 39.683594 207.917969 37.824219 204.714844 36.585938 C 201.515625 35.34375 199.550781 34.722656 198.15625 34.363281 C 196.765625 34 195.9375 33.894531 194.179688 33.84375 C 192.425781 33.789062 189.742188 33.789062 188.039062 33.894531 C 186.332031 34 185.609375 34.203125 184.835938 34.410156 C 184.0625 34.621094 183.234375 34.824219 182.359375 35.085938 C 181.480469 35.34375 180.550781 35.652344 179.207031 35.859375 C 177.867188 36.066406 176.109375 36.167969 174.097656 36.324219 C 172.082031 36.480469 169.8125 36.6875 167.902344 36.996094 C 165.992188 37.308594 164.441406 37.71875 162.480469 38.234375 C 160.519531 38.753906 158.144531 39.375 156.335938 39.992188 C 154.527344 40.613281 153.289062 41.234375 152.359375 41.753906 C 151.429688 42.269531 150.8125 42.679688 150.449219 43.042969 C 150.085938 43.40625 149.984375 43.714844 149.625 44.179688 C 149.261719 44.644531 148.644531 45.265625 148.175781 45.785156 C 147.710938 46.300781 147.40625 46.714844 146.941406 47.28125 C 146.476562 47.851562 145.855469 48.574219 145.234375 49.246094 C 144.613281 49.921875 143.996094 50.539062 143.117188 51.109375 C 142.238281 51.675781 141.105469 52.191406 139.761719 53.070312 C 138.417969 53.953125 136.871094 55.191406 135.632812 56.226562 C 134.390625 57.257812 133.464844 58.085938 132.378906 59.277344 C 131.292969 60.464844 130.058594 62.015625 128.714844 63.980469 C 127.371094 65.945312 125.925781 68.324219 124.789062 70.390625 C 123.65625 72.457031 122.828125 74.214844 121.949219 76.335938 C 121.070312 78.453125 120.140625 80.933594 119.417969 83.3125 C 118.695312 85.691406 118.183594 87.964844 117.664062 90.726562 C 117.148438 93.484375 116.632812 96.734375 116.375 99.984375 C 116.117188 103.238281 116.117188 106.496094 116.167969 108.957031 C 116.21875 111.417969 116.320312 113.078125 116.476562 114.941406 C 116.632812 116.808594 116.839844 118.875 117.097656 120.738281 C 117.355469 122.597656 117.664062 124.253906 118.335938 126.785156 C 119.007812 129.320312 120.039062 132.730469 121.125 136.039062 C 122.207031 139.34375 123.34375 142.550781 124.585938 145.757812 C 125.820312 148.960938 127.164062 152.167969 128.40625 154.957031 C 129.640625 157.746094 130.78125 160.128906 132.171875 163.023438 C 133.566406 165.914062 135.21875 169.328125 137.027344 172.84375 C 138.832031 176.359375 140.796875 179.976562 142.65625 183.390625 C 144.511719 186.800781 146.265625 190.003906 148.074219 193.3125 C 149.882812 196.621094 151.738281 200.035156 153.445312 203.136719 C 155.148438 206.238281 156.699219 209.027344 158.453125 212.285156 C 160.207031 215.539062 162.171875 219.261719 164.132812 222.984375 C 163.203125 225.050781 162.273438 227.121094 161.449219 229.136719 C 160.621094 231.152344 159.898438 233.117188 158.609375 236.527344 C 157.316406 239.941406 155.457031 244.796875 154.011719 248.726562 C 152.566406 252.65625 151.535156 255.652344 150.863281 257.617188 C 150.191406 259.585938 149.882812 260.511719 149.574219 261.339844 C 149.261719 262.167969 148.953125 262.890625 148.539062 264.183594 C 148.128906 265.476562 147.609375 267.339844 147.25 268.835938 C 146.886719 270.335938 146.679688 271.472656 146.371094 272.921875 C 146.0625 274.367188 145.648438 276.125 145.183594 278.242188 C 144.71875 280.363281 144.203125 282.84375 143.84375 285.015625 C 143.480469 287.1875 143.273438 289.046875 143.171875 291.21875 C 143.066406 293.390625 143.066406 295.871094 143.066406 297.992188 C 143.066406 300.109375 143.066406 301.867188 143.171875 303.523438 C 143.273438 305.175781 143.480469 306.726562 143.890625 308.949219 C 144.304688 311.171875 144.925781 314.066406 145.648438 316.390625 C 146.371094 318.722656 147.199219 320.476562 148.023438 321.976562 C 148.851562 323.476562 149.675781 324.714844 150.863281 326.113281 C 152.050781 327.507812 153.601562 329.058594 155.199219 330.402344 C 156.800781 331.746094 158.453125 332.882812 159.796875 333.707031 C 161.136719 334.539062 162.171875 335.054688 163.410156 335.519531 C 164.648438 335.984375 166.097656 336.398438 167.4375 336.65625 C 168.78125 336.914062 170.019531 337.015625 171.15625 336.96875 C 172.289062 336.914062 173.324219 336.707031 174.253906 336.398438 C 175.179688 336.089844 176.007812 335.671875 176.832031 335.261719 C 177.351562 335.363281 177.867188 335.46875 178.589844 335.726562 C 179.3125 335.984375 180.242188 336.398438 181.429688 337.015625 C 182.617188 337.636719 184.0625 338.46875 185.765625 339.136719 C 187.46875 339.808594 189.429688 340.328125 192.015625 340.636719 C 194.59375 340.949219 197.796875 341.050781 199.9375 341.074219 C 202.078125 341.101562 203.160156 341.050781 204.867188 340.894531 C 206.566406 340.738281 208.894531 340.480469 210.730469 340.148438 C 212.5625 339.808594 213.90625 339.394531 215.609375 338.726562 C 217.3125 338.050781 219.375 337.121094 221.03125 336.242188 C 222.683594 335.363281 223.921875 334.539062 225.316406 333.402344 C 226.710938 332.261719 228.261719 330.816406 229.601562 329.316406 C 230.941406 327.816406 232.082031 326.265625 233.058594 324.714844 C 234.039062 323.167969 234.867188 321.613281 235.644531 319.339844 C 236.414062 317.066406 237.140625 314.066406 237.601562 311.070312 C 238.066406 308.070312 238.273438 305.070312 238.378906 302.332031 C 238.480469 299.59375 238.480469 297.113281 238.378906 294.941406 C 238.273438 292.769531 238.066406 290.910156 237.757812 288.996094 C 237.445312 287.085938 237.035156 285.121094 236.46875 283.050781 C 235.898438 280.984375 235.175781 278.8125 234.402344 276.640625 C 233.628906 274.46875 232.800781 272.300781 231.71875 269.714844 C 230.632812 267.128906 229.292969 264.132812 228.050781 261.546875 C 226.8125 258.964844 225.675781 256.792969 224.542969 254.671875 C 223.40625 252.554688 222.269531 250.484375 221.183594 248.417969 C 220.097656 246.351562 219.066406 244.28125 217.984375 242.214844 C 216.898438 240.148438 215.765625 238.082031 214.472656 235.753906 C 213.183594 233.425781 211.738281 230.839844 210.753906 229.03125 C 209.773438 227.226562 209.257812 226.191406 208.742188 225.15625 Z M 184.578125 183.285156 C 187.054688 178.839844 189.535156 174.394531 191.550781 170.207031 C 193.5625 166.019531 195.113281 162.089844 196.453125 158.9375 C 197.796875 155.785156 198.929688 153.40625 200.328125 149.582031 C 201.71875 145.757812 203.371094 140.484375 204.558594 135.988281 C 205.746094 131.488281 206.46875 127.765625 206.988281 124.304688 C 207.5 120.839844 207.8125 117.636719 207.917969 114.121094 C 208.019531 110.605469 207.917969 106.78125 207.65625 103.679688 C 207.398438 100.578125 206.988281 98.199219 206.210938 95.769531 C 205.4375 93.339844 204.300781 90.859375 203.214844 88.949219 C 202.132812 87.035156 201.101562 85.691406 199.808594 84.292969 C 198.519531 82.898438 196.96875 81.449219 195.164062 80.105469 C 193.355469 78.761719 191.292969 77.523438 189.226562 76.644531 C 187.160156 75.765625 185.09375 75.25 183.132812 74.9375 C 181.171875 74.628906 179.3125 74.523438 177.402344 74.578125 C 175.492188 74.628906 173.527344 74.835938 171.878906 75.144531 C 170.226562 75.457031 168.882812 75.867188 167.695312 76.335938 C 166.507812 76.800781 165.476562 77.316406 164.441406 78.039062 C 163.410156 78.761719 162.378906 79.695312 161.449219 80.933594 C 160.519531 82.175781 159.691406 83.726562 158.917969 85.433594 C 158.144531 87.136719 157.421875 89 156.75 91.171875 C 156.078125 93.339844 155.457031 95.824219 155.046875 98.203125 C 154.632812 100.578125 154.425781 102.851562 154.324219 104.917969 C 154.21875 106.988281 154.21875 108.847656 154.324219 111.175781 C 154.425781 113.5 154.632812 116.292969 155.199219 119.394531 C 155.769531 122.496094 156.699219 125.90625 157.730469 129.371094 C 158.761719 132.832031 159.898438 136.351562 161.347656 140.070312 C 162.789062 143.789062 164.546875 147.722656 166.300781 151.441406 C 168.054688 155.164062 169.808594 158.679688 171.929688 162.710938 C 174.046875 166.742188 176.523438 171.292969 178.695312 174.808594 C 180.859375 178.324219 182.71875 180.804688 184.578125 183.285156 Z M 211.507812 220.519531 L 211.1875 221.164062 L 211.816406 222.398438 C 212.144531 223.042969 212.523438 223.761719 212.992188 224.625 C 213.730469 225.984375 214.730469 227.78125 215.726562 229.574219 L 216.710938 231.347656 C 217.355469 232.507812 217.964844 233.605469 218.542969 234.675781 C 219.148438 235.785156 219.707031 236.828125 220.222656 237.808594 C 220.765625 238.839844 221.296875 239.878906 221.824219 240.910156 C 222.351562 241.941406 222.882812 242.980469 223.421875 244.011719 C 224.171875 245.445312 224.878906 246.742188 225.585938 248.054688 L 226.78125 250.269531 C 227.347656 251.328125 227.914062 252.402344 228.496094 253.53125 C 229.089844 254.6875 229.691406 255.878906 230.292969 257.140625 C 230.914062 258.441406 231.554688 259.820312 232.164062 261.175781 C 232.8125 262.625 233.429688 264.039062 233.960938 265.3125 C 234.394531 266.34375 234.878906 267.558594 235.417969 268.949219 C 235.867188 270.125 236.265625 271.203125 236.644531 272.257812 C 237.039062 273.367188 237.417969 274.460938 237.753906 275.503906 C 238.125 276.636719 238.449219 277.703125 238.714844 278.671875 C 239.011719 279.757812 239.261719 280.765625 239.460938 281.707031 C 239.660156 282.625 239.84375 283.609375 240.011719 284.640625 C 240.15625 285.546875 240.285156 286.496094 240.394531 287.535156 C 240.507812 288.609375 240.589844 289.621094 240.636719 290.609375 C 240.691406 291.71875 240.714844 292.894531 240.714844 294.117188 C 240.714844 295.363281 240.691406 296.675781 240.636719 298.046875 C 240.589844 299.394531 240.507812 300.832031 240.378906 302.359375 C 240.257812 303.84375 240.085938 305.367188 239.847656 306.902344 C 239.613281 308.433594 239.304688 309.976562 238.957031 311.4375 C 238.585938 313.015625 238.152344 314.535156 237.6875 315.898438 C 236.980469 317.972656 236.078125 320.066406 235 322.257812 C 233.828125 324.644531 232.800781 326.433594 231.792969 328.027344 C 231.144531 329.050781 230.464844 330.050781 229.75 331.007812 C 229.097656 331.882812 228.40625 332.734375 227.675781 333.554688 C 227 334.308594 226.273438 335.050781 225.539062 335.746094 C 224.777344 336.472656 224 337.15625 223.253906 337.765625 C 222.511719 338.371094 221.839844 338.878906 221.164062 339.324219 C 220.476562 339.777344 219.75 340.207031 218.898438 340.660156 C 218.039062 341.117188 217.136719 341.558594 216.28125 341.949219 C 215.371094 342.371094 214.390625 342.785156 213.457031 343.152344 C 212.648438 343.472656 211.890625 343.742188 211.058594 343.988281 C 210.21875 344.230469 209.414062 344.425781 208.550781 344.582031 C 207.765625 344.730469 206.851562 344.863281 205.917969 344.980469 C 204.820312 345.121094 203.667969 345.242188 202.683594 345.332031 C 201.839844 345.40625 201.144531 345.457031 200.382812 345.484375 C 199.65625 345.515625 198.847656 345.519531 197.75 345.507812 C 196.542969 345.492188 194.992188 345.453125 193.386719 345.363281 C 192.1875 345.300781 190.957031 345.203125 189.820312 345.066406 C 188.542969 344.910156 187.398438 344.703125 186.363281 344.449219 C 185.339844 344.199219 184.417969 343.898438 183.5625 343.5625 C 182.183594 343.015625 180.964844 342.371094 179.925781 341.8125 L 179.222656 341.4375 C 178.648438 341.140625 178.132812 340.886719 177.671875 340.675781 C 177.191406 340.460938 176.761719 340.285156 176.386719 340.148438 C 176.03125 340.023438 175.71875 339.933594 175.433594 339.859375 C 175.175781 339.796875 174.921875 339.742188 174.667969 339.695312 C 173.84375 340.101562 173.019531 340.515625 172.09375 340.824219 C 171.582031 340.992188 171.066406 341.132812 170.5625 341.222656 C 170.078125 341.3125 169.550781 341.371094 168.96875 341.402344 C 168.417969 341.425781 167.824219 341.410156 167.179688 341.355469 C 166.574219 341.308594 165.925781 341.214844 165.238281 341.085938 C 164.585938 340.957031 163.894531 340.789062 163.207031 340.597656 C 162.519531 340.402344 161.839844 340.179688 161.207031 339.941406 C 160.472656 339.664062 159.894531 339.421875 159.421875 339.191406 C 158.976562 338.964844 158.378906 338.621094 157.585938 338.128906 C 156.855469 337.683594 156.039062 337.144531 155.199219 336.535156 C 154.46875 336.011719 153.71875 335.433594 152.984375 334.816406 C 152.191406 334.152344 151.414062 333.441406 150.699219 332.734375 C 149.9375 331.980469 149.238281 331.226562 148.640625 330.523438 C 148.027344 329.808594 147.523438 329.148438 147.078125 328.488281 C 146.605469 327.800781 146.191406 327.113281 145.785156 326.382812 C 145.359375 325.601562 144.9375 324.78125 144.554688 323.898438 C 144.167969 323.015625 143.78125 321.992188 143.40625 320.777344 C 143.066406 319.675781 142.761719 318.53125 142.5 317.421875 C 142.1875 316.09375 141.890625 314.625 141.644531 313.308594 C 141.425781 312.113281 141.265625 311.167969 141.160156 310.375 C 141.042969 309.503906 140.964844 308.695312 140.914062 307.851562 C 140.808594 306.140625 140.808594 304.398438 140.808594 302.300781 C 140.808594 301.53125 140.808594 300.699219 140.824219 298.914062 C 140.839844 297.742188 140.867188 296.570312 140.914062 295.488281 C 140.972656 294.347656 141.050781 293.328125 141.15625 292.34375 C 141.265625 291.320312 141.414062 290.28125 141.601562 289.160156 C 141.789062 288.042969 142.011719 286.863281 142.242188 285.695312 C 142.492188 284.464844 142.734375 283.316406 142.960938 282.289062 C 143.15625 281.390625 143.382812 280.402344 143.589844 279.484375 C 143.828125 278.425781 144.042969 277.488281 144.148438 276.96875 L 144.433594 275.628906 C 144.613281 274.730469 144.792969 273.875 145.050781 272.804688 C 145.238281 272.011719 145.472656 271.121094 145.710938 270.265625 C 145.964844 269.351562 146.21875 268.484375 146.4375 267.792969 C 146.847656 266.511719 147.183594 265.648438 147.5 264.835938 L 147.664062 264.394531 C 147.832031 263.957031 148.054688 263.304688 148.433594 262.179688 L 148.824219 261.039062 C 149.183594 259.988281 149.636719 258.675781 150.140625 257.242188 C 150.6875 255.6875 151.328125 253.890625 152.070312 251.875 C 153.136719 248.980469 154.480469 245.4375 155.644531 242.375 C 156.234375 240.773438 156.851562 239.183594 157.453125 237.585938 C 158.320312 235.292969 158.925781 233.679688 159.65625 231.890625 L 159.769531 231.613281 C 160.277344 230.371094 160.820312 229.109375 161.375 227.839844 C 161.425781 227.78125 161.667969 227.183594 161.722656 227.0625 C 159.78125 223.390625 157.859375 219.734375 156.21875 216.691406 C 154.898438 214.242188 153.695312 212.058594 152.453125 209.804688 L 151.207031 207.539062 C 149.9375 205.226562 148.574219 202.730469 147.214844 200.238281 L 140.417969 187.792969 C 139.441406 186.007812 138.457031 184.191406 137.582031 182.558594 C 136.632812 180.789062 135.691406 179.007812 134.785156 177.25 C 133.859375 175.441406 132.996094 173.71875 132.203125 172.105469 C 131.390625 170.449219 130.628906 168.875 129.933594 167.425781 C 129.214844 165.933594 128.570312 164.589844 127.988281 163.355469 C 127.355469 162.011719 126.761719 160.710938 126.160156 159.363281 C 125.507812 157.886719 124.835938 156.332031 124.183594 154.753906 C 123.6875 153.566406 123.078125 152.035156 122.34375 150.140625 C 121.714844 148.507812 121.117188 146.90625 120.554688 145.316406 C 119.96875 143.675781 119.414062 142.046875 118.882812 140.417969 C 118.320312 138.707031 117.78125 137 117.3125 135.441406 C 116.824219 133.824219 116.402344 132.359375 116.089844 131.164062 C 115.769531 129.964844 115.523438 128.90625 115.3125 127.867188 C 115.105469 126.828125 114.964844 125.960938 114.84375 125.09375 C 114.742188 124.355469 114.632812 123.421875 114.519531 122.378906 C 114.394531 121.226562 114.300781 120.1875 114.222656 119.277344 C 114.140625 118.238281 114.070312 117.332031 114.023438 116.503906 C 113.976562 115.621094 113.941406 114.59375 113.914062 113.265625 C 113.886719 112.03125 113.875 110.597656 113.898438 109.058594 C 113.925781 107.515625 113.988281 105.871094 114.121094 104.234375 C 114.253906 102.566406 114.449219 100.921875 114.675781 99.355469 C 114.898438 97.808594 115.164062 96.269531 115.433594 94.832031 C 115.691406 93.433594 115.960938 92.136719 116.261719 90.867188 C 116.5625 89.566406 116.898438 88.3125 117.292969 87.015625 C 117.671875 85.773438 118.097656 84.5 118.550781 83.25 L 118.582031 83.15625 C 119.136719 81.625 119.734375 80.109375 120.316406 78.699219 C 120.9375 77.199219 121.578125 75.746094 122.304688 74.214844 L 122.425781 73.957031 C 123.285156 72.140625 124.179688 70.394531 125.183594 68.570312 C 126.003906 67.074219 126.910156 65.515625 127.820312 64.023438 C 128.617188 62.722656 129.445312 61.441406 130.238281 60.28125 C 130.992188 59.175781 131.695312 58.210938 132.351562 57.371094 C 133.054688 56.464844 133.714844 55.683594 134.316406 55.023438 C 134.886719 54.398438 135.417969 53.867188 135.972656 53.355469 C 136.511719 52.855469 137.0625 52.386719 137.6875 51.859375 C 138.285156 51.359375 138.984375 50.792969 139.734375 50.210938 C 140.480469 49.632812 141.21875 49.089844 141.871094 48.667969 C 142.621094 48.171875 143.324219 47.789062 143.949219 47.441406 C 144.425781 47.179688 144.859375 46.941406 145.230469 46.703125 C 145.65625 46.425781 146 46.152344 146.304688 45.878906 C 146.613281 45.597656 146.898438 45.300781 147.179688 44.996094 C 147.425781 44.726562 147.707031 44.414062 147.996094 44.082031 C 148.25 43.789062 148.523438 43.460938 148.789062 43.136719 L 149.148438 42.691406 C 149.449219 42.316406 149.71875 41.980469 150.105469 41.546875 L 150.644531 40.964844 C 150.914062 40.679688 151.183594 40.386719 151.339844 40.207031 C 151.6875 39.660156 152.011719 39.171875 152.445312 38.734375 C 152.671875 38.507812 152.953125 38.28125 153.296875 38.050781 C 153.609375 37.839844 154.007812 37.597656 154.488281 37.332031 C 154.972656 37.0625 155.527344 36.769531 156.164062 36.480469 C 156.769531 36.207031 157.523438 35.902344 158.492188 35.570312 C 160.382812 34.921875 162.589844 34.339844 164.449219 33.847656 L 164.796875 33.757812 C 166.664062 33.265625 168.160156 32.871094 170.082031 32.558594 C 171.007812 32.410156 172.058594 32.277344 173.140625 32.167969 C 174.171875 32.0625 175.253906 31.96875 176.277344 31.890625 L 177.441406 31.804688 C 178.949219 31.691406 180.273438 31.59375 181.386719 31.421875 C 182.597656 31.234375 183.414062 30.992188 184.152344 30.765625 L 184.515625 30.660156 C 185.589844 30.34375 186 30.234375 186.394531 30.132812 L 187.089844 29.949219 C 187.816406 29.753906 188.527344 29.5625 190.222656 29.460938 C 190.996094 29.414062 192.003906 29.386719 193.039062 29.378906 C 194.195312 29.371094 195.40625 29.382812 196.371094 29.410156 C 197.230469 29.4375 197.878906 29.476562 198.5 29.554688 C 199.09375 29.632812 199.652344 29.75 200.359375 29.933594 C 201.050781 30.113281 201.890625 30.359375 202.960938 30.71875 C 204.019531 31.070312 205.3125 31.535156 206.917969 32.160156 C 208.402344 32.734375 210.15625 33.445312 211.878906 34.140625 C 213.875 34.949219 215.828125 35.738281 217.296875 36.296875 C 218.65625 36.808594 219.601562 37.117188 220.339844 37.328125 C 221.058594 37.527344 221.59375 37.632812 222.144531 37.738281 C 222.683594 37.839844 223.242188 37.945312 223.820312 38.050781 C 224.382812 38.148438 224.988281 38.25 225.652344 38.355469 L 226.605469 38.507812 C 227.617188 38.664062 228.683594 38.832031 229.679688 39.03125 C 230.320312 39.160156 230.929688 39.304688 231.511719 39.472656 C 232.085938 39.640625 232.628906 39.835938 233.148438 40.070312 C 233.667969 40.304688 234.160156 40.578125 234.644531 40.878906 C 235.132812 41.1875 235.613281 41.523438 236.101562 41.882812 C 236.59375 42.25 237.101562 42.636719 237.613281 43.074219 C 238.140625 43.519531 238.671875 44.011719 239.207031 44.574219 C 239.761719 45.15625 240.316406 45.800781 240.871094 46.488281 C 241.449219 47.210938 242.015625 47.957031 242.570312 48.710938 C 243.164062 49.527344 243.753906 50.355469 244.316406 51.183594 C 244.863281 51.988281 245.386719 52.792969 245.878906 53.574219 C 246.410156 54.429688 246.902344 55.257812 247.367188 56.070312 C 247.859375 56.9375 248.320312 57.785156 248.773438 58.644531 C 249.261719 59.558594 249.726562 60.460938 250.210938 61.429688 C 250.710938 62.429688 251.253906 63.53125 251.875 64.796875 C 252.507812 66.085938 253.210938 67.539062 253.878906 68.957031 C 254.574219 70.449219 255.253906 71.945312 255.804688 73.277344 C 256.332031 74.550781 256.800781 75.824219 257.230469 77.109375 C 257.652344 78.359375 257.988281 79.472656 258.285156 80.535156 C 258.605469 81.691406 258.890625 82.792969 259.140625 83.832031 C 259.367188 84.777344 259.59375 85.863281 259.832031 87.070312 C 260.054688 88.210938 260.238281 89.265625 260.375 90.207031 C 260.519531 91.214844 260.636719 92.230469 260.71875 93.246094 C 260.792969 94.257812 260.835938 95.222656 260.847656 96.261719 C 260.859375 97.285156 260.847656 98.453125 260.820312 99.855469 C 260.796875 101.148438 260.757812 102.707031 260.6875 104.480469 C 260.621094 106.183594 260.53125 107.90625 260.40625 109.460938 C 260.285156 110.9375 260.132812 112.359375 259.953125 113.699219 C 259.746094 115.25 259.523438 116.613281 259.304688 117.769531 C 259.089844 118.886719 258.871094 119.863281 258.652344 120.769531 C 258.445312 121.625 258.238281 122.378906 258.039062 123.117188 L 258.003906 123.242188 C 257.816406 123.925781 257.613281 124.648438 257.304688 125.703125 C 257.019531 126.664062 256.699219 127.730469 256.289062 129.03125 C 255.8125 130.558594 255.199219 132.480469 254.507812 134.546875 L 254.496094 134.5625 C 253.933594 136.25 253.335938 137.984375 252.742188 139.625 C 252.015625 141.636719 251.246094 143.667969 250.441406 145.679688 C 249.59375 147.796875 248.726562 149.863281 247.851562 151.839844 C 246.898438 153.980469 245.933594 156.03125 244.933594 158.066406 C 243.996094 159.976562 243.039062 161.84375 242.046875 163.746094 C 240.835938 166.042969 239.660156 168.222656 238.429688 170.496094 L 236.628906 173.839844 L 235.078125 176.738281 C 233.605469 179.496094 232.042969 182.421875 230.34375 185.519531 C 229.3125 187.390625 228.144531 189.484375 227.011719 191.519531 C 225.773438 193.738281 224.570312 195.890625 223.671875 197.542969 C 222.664062 199.402344 221.792969 201.082031 220.933594 202.742188 L 220.890625 202.824219 C 220.390625 203.792969 219.890625 204.757812 219.257812 205.960938 C 218.097656 208.160156 216.792969 210.578125 215.589844 212.808594 C 215.132812 213.664062 214.652344 214.53125 214.203125 215.382812 C 213.589844 216.523438 213.046875 217.546875 212.539062 218.507812 C 212.152344 219.25 211.816406 219.90625 211.507812 220.519531 Z M 186.582031 178.570312 C 188.203125 175.644531 189.722656 172.851562 190.789062 170.628906 C 191.816406 168.5 192.878906 165.949219 193.808594 163.710938 C 194.148438 162.894531 194.46875 162.128906 194.929688 161.050781 L 194.925781 161.054688 C 195.335938 160.09375 195.703125 159.25 196.0625 158.421875 C 196.828125 156.667969 197.558594 155 198.375 152.765625 C 199.003906 151.035156 199.71875 148.894531 200.429688 146.613281 C 201.144531 144.308594 201.824219 141.976562 202.378906 139.878906 C 202.953125 137.695312 203.417969 135.699219 203.800781 133.824219 C 204.183594 131.953125 204.488281 130.1875 204.746094 128.472656 L 204.753906 128.402344 C 205.003906 126.710938 205.207031 125.085938 205.359375 123.460938 C 205.503906 121.855469 205.605469 120.199219 205.660156 118.410156 C 205.710938 116.664062 205.710938 114.859375 205.667969 113.121094 C 205.625 111.316406 205.53125 109.570312 205.40625 108.015625 C 205.273438 106.457031 205.109375 105.097656 204.882812 103.828125 C 204.652344 102.5625 204.355469 101.367188 203.96875 100.152344 C 203.613281 99.046875 203.160156 97.871094 202.652344 96.71875 C 202.105469 95.472656 201.53125 94.324219 200.980469 93.351562 C 200.425781 92.378906 199.898438 91.5625 199.363281 90.839844 C 198.796875 90.078125 198.21875 89.394531 197.585938 88.707031 C 196.90625 87.972656 196.15625 87.222656 195.34375 86.492188 C 194.597656 85.816406 193.796875 85.15625 192.949219 84.523438 C 192.015625 83.832031 191.019531 83.167969 189.996094 82.570312 C 189.023438 82.003906 188.019531 81.492188 187.019531 81.066406 C 185.992188 80.632812 184.964844 80.28125 183.941406 80.003906 C 182.933594 79.726562 181.925781 79.523438 180.9375 79.367188 C 179.96875 79.210938 179.011719 79.109375 178.058594 79.050781 C 177.132812 78.996094 176.1875 78.984375 175.214844 79.011719 C 174.296875 79.03125 173.335938 79.097656 172.382812 79.195312 C 171.46875 79.289062 170.558594 79.421875 169.703125 79.582031 C 168.816406 79.75 168.078125 79.921875 167.453125 80.105469 C 166.816406 80.289062 166.175781 80.511719 165.542969 80.761719 C 164.9375 80.996094 164.390625 81.242188 163.878906 81.507812 C 163.351562 81.78125 162.847656 82.082031 162.347656 82.429688 C 161.859375 82.777344 161.367188 83.171875 160.894531 83.617188 C 160.5 83.992188 160.128906 84.394531 159.796875 84.824219 L 159.664062 85.164062 C 159.398438 85.863281 159.132812 86.640625 158.867188 87.503906 C 158.558594 88.496094 158.257812 89.589844 157.980469 90.746094 C 157.707031 91.867188 157.46875 92.992188 157.28125 94.074219 L 157.277344 94.078125 L 157.28125 94.074219 C 157.082031 95.207031 156.933594 96.34375 156.820312 97.449219 C 156.703125 98.578125 156.625 99.648438 156.578125 100.652344 C 156.527344 101.589844 156.503906 102.558594 156.503906 103.640625 C 156.503906 104.789062 156.527344 105.832031 156.574219 106.863281 C 156.625 108 156.699219 109.269531 156.835938 110.660156 C 156.972656 112.027344 157.167969 113.492188 157.449219 115.035156 C 157.722656 116.519531 158.097656 118.148438 158.539062 119.867188 C 158.984375 121.59375 159.472656 123.300781 159.976562 124.992188 C 160.507812 126.773438 161.054688 128.527344 161.625 130.242188 C 162.230469 132.046875 162.875 133.859375 163.585938 135.6875 C 164.234375 137.359375 165.042969 139.285156 165.949219 141.355469 C 166.804688 143.296875 167.679688 145.207031 168.542969 147.039062 C 169.433594 148.921875 170.308594 150.730469 171.222656 152.554688 C 172.160156 154.441406 173.132812 156.328125 174.167969 158.304688 C 175.238281 160.347656 176.394531 162.5 177.527344 164.546875 C 178.695312 166.648438 179.859375 168.667969 180.925781 170.402344 C 182.023438 172.175781 183.023438 173.671875 183.984375 175.023438 C 184.886719 176.300781 185.734375 177.441406 186.582031 178.570312 Z M 186.582031 178.570312 " fill-opacity="1" fill-rule="evenodd"/></g><path fill="#630e2b" d="M 162.261719 79.546875 C 164.859375 75.15625 167.554688 70.84375 171.273438 67.289062 C 175.386719 63.359375 180.757812 60.359375 186.128906 59.121094 C 191.496094 57.878906 196.867188 58.398438 200.894531 59.378906 C 204.921875 60.359375 207.605469 61.808594 209.464844 62.121094 C 211.324219 62.425781 212.355469 61.601562 214.316406 60.359375 C 216.28125 59.121094 219.171875 57.464844 222.0625 57 C 224.953125 56.535156 227.84375 57.257812 230.839844 59.582031 C 233.835938 61.914062 236.933594 65.839844 240.183594 71.269531 C 243.4375 76.695312 246.84375 83.625 248.652344 90.757812 C 250.460938 97.890625 250.664062 105.230469 249.738281 113.292969 C 248.808594 121.359375 246.742188 130.144531 243.644531 139.863281 C 240.546875 149.582031 236.414062 160.230469 232.390625 169.175781 C 228.363281 178.113281 224.4375 185.355469 221.339844 191.089844 C 218.242188 196.828125 215.96875 201.066406 213.59375 205.925781 C 211.21875 210.785156 208.742188 216.261719 206.265625 221.746094 C 201.304688 212.75 196.351562 203.757812 192.585938 197.144531 C 188.820312 190.53125 188.597656 189.300781 187.371094 187.445312 C 187.308594 187.351562 187.136719 187.117188 187.371094 187.445312 C 195.628906 170.65625 203.890625 153.863281 208.226562 137.765625 C 212.5625 121.667969 212.972656 106.261719 210.703125 96.183594 C 208.433594 86.105469 203.476562 81.347656 196.554688 78.726562 C 193.628906 77.621094 190.347656 76.898438 187.089844 76.460938 C 185.828125 76.050781 184.527344 75.703125 183.242188 75.453125 C 180.296875 74.878906 177.460938 74.816406 174.609375 75.171875 C 171.757812 75.535156 168.886719 76.308594 166.691406 77.339844 C 165.820312 77.746094 165.058594 78.195312 164.359375 78.664062 C 163.839844 78.894531 163.332031 79.132812 162.828125 79.367188 Z M 185.867188 180.746094 C 187.085938 178.347656 188.292969 175.964844 189.457031 173.625 C 188.421875 175.863281 187.648438 177.433594 186.757812 179.109375 C 186.472656 179.644531 186.175781 180.191406 185.867188 180.746094 Z M 185.867188 180.746094 " fill-opacity="1" fill-rule="evenodd"/><path fill="#630e2b" d="M 189.84375 225.464844 C 190.257812 225.15625 190.671875 224.847656 191.03125 224.792969 C 191.394531 224.742188 191.703125 224.949219 191.804688 225.261719 C 191.910156 225.570312 191.804688 225.984375 191.960938 226.394531 C 192.117188 226.808594 192.527344 227.226562 192.738281 227.636719 C 192.945312 228.050781 192.945312 228.464844 192.789062 228.671875 C 192.632812 228.875 192.324219 228.875 192.066406 229.085938 C 191.804688 229.292969 191.601562 229.707031 191.394531 230.015625 C 191.1875 230.324219 190.980469 230.53125 190.464844 230.273438 C 189.949219 230.015625 189.121094 229.292969 188.554688 228.828125 C 187.984375 228.359375 187.675781 228.152344 187.574219 227.894531 C 187.46875 227.636719 187.574219 227.328125 187.730469 227.121094 C 187.882812 226.914062 188.089844 226.808594 188.296875 226.707031 C 187.675781 225.984375 187.054688 225.261719 186.589844 224.382812 C 186.125 223.503906 185.820312 222.46875 185.664062 221.847656 C 185.507812 221.226562 185.507812 221.019531 185.765625 221.070312 C 186.023438 221.125 186.542969 221.433594 187.160156 221.898438 C 187.777344 222.363281 188.503906 222.984375 188.964844 223.605469 C 189.429688 224.226562 189.640625 224.847656 189.84375 225.464844 Z M 180.757812 320.371094 C 180.964844 320.476562 181.375 320.890625 182.152344 321.355469 C 182.925781 321.820312 184.0625 322.335938 184.835938 323.011719 C 185.609375 323.679688 186.023438 324.511719 186.128906 325.390625 C 186.230469 326.265625 186.023438 327.195312 185.820312 328.023438 C 185.609375 328.851562 185.402344 329.574219 185.199219 330.039062 C 184.992188 330.503906 184.785156 330.710938 184.679688 330.558594 C 184.578125 330.402344 184.578125 329.882812 184.320312 329.003906 C 184.0625 328.125 183.546875 326.886719 182.875 325.902344 C 182.203125 324.921875 181.378906 324.199219 180.550781 323.628906 C 179.726562 323.0625 178.898438 322.648438 178.695312 322.441406 C 178.484375 322.234375 178.898438 322.234375 179.363281 322.234375 C 179.828125 322.234375 180.34375 322.234375 180.550781 322.078125 C 180.757812 321.925781 180.652344 321.613281 180.605469 321.355469 C 180.550781 321.097656 180.550781 320.890625 180.550781 320.683594 C 180.550781 320.476562 180.550781 320.269531 180.757812 320.371094 Z M 183.367188 332.667969 C 183.925781 332.273438 185.269531 331.753906 186.148438 331.34375 C 187.023438 330.925781 187.4375 330.621094 187.746094 330 C 188.058594 329.378906 188.261719 328.445312 188.367188 327.621094 C 188.46875 326.792969 188.46875 326.070312 187.957031 324.984375 C 187.4375 323.898438 186.40625 322.453125 185.476562 321.261719 C 184.546875 320.074219 183.71875 319.144531 183.410156 318.160156 C 183.101562 317.179688 183.308594 316.144531 183.515625 315.574219 C 183.71875 315.007812 183.925781 314.902344 184.183594 314.957031 C 184.441406 315.007812 184.753906 315.214844 184.960938 315.265625 C 185.164062 315.320312 185.269531 315.214844 185.527344 314.699219 C 185.785156 314.179688 186.195312 313.25 186.507812 312.679688 C 186.816406 312.113281 187.023438 311.90625 187.28125 312.113281 C 187.539062 312.320312 187.851562 312.941406 188.160156 313.144531 C 188.46875 313.351562 188.78125 313.144531 189.089844 312.835938 C 189.398438 312.523438 189.710938 312.113281 190.121094 312.007812 C 190.535156 311.90625 191.054688 312.113281 191.257812 312.371094 C 191.464844 312.628906 191.359375 312.941406 191.308594 313.199219 C 191.257812 313.457031 191.257812 313.664062 191.519531 313.921875 C 191.773438 314.179688 192.289062 314.488281 192.753906 315.007812 C 193.21875 315.523438 193.632812 316.246094 193.738281 317.023438 C 193.839844 317.796875 193.632812 318.625 193.273438 319.296875 C 192.910156 319.96875 192.394531 320.488281 191.722656 320.691406 C 191.054688 320.898438 190.226562 320.796875 189.605469 320.535156 C 188.988281 320.277344 188.574219 319.867188 188.367188 319.296875 C 188.160156 318.730469 188.160156 318.007812 188.316406 317.644531 C 188.46875 317.28125 188.78125 317.28125 188.988281 317.4375 C 189.191406 317.589844 189.292969 317.902344 189.453125 318.160156 C 189.605469 318.417969 189.8125 318.625 190.226562 318.574219 C 190.636719 318.523438 191.257812 318.210938 191.566406 317.644531 C 191.878906 317.074219 191.878906 316.246094 191.414062 315.730469 C 190.949219 315.214844 190.019531 315.007812 189.191406 315.058594 C 188.367188 315.109375 187.644531 315.421875 187.179688 316.042969 C 186.714844 316.664062 186.507812 317.589844 186.507812 318.46875 C 186.507812 319.351562 186.714844 320.175781 187.28125 321.15625 C 187.851562 322.140625 188.78125 323.277344 189.398438 324.15625 C 190.019531 325.035156 190.328125 325.65625 190.328125 326.585938 C 190.328125 327.519531 190.019531 328.757812 189.605469 329.585938 C 189.191406 330.410156 188.675781 330.824219 187.902344 331.34375 C 187.128906 331.859375 186.09375 332.480469 185.277344 332.875 C 184.457031 333.269531 183.851562 333.441406 183.441406 333.390625 C 183.023438 333.339844 182.804688 333.066406 183.367188 332.667969 Z M 177.554688 333.8125 C 177.761719 333.8125 178.074219 333.917969 178.277344 333.917969 C 178.484375 333.917969 178.589844 333.8125 178.742188 333.710938 C 178.898438 333.605469 179.105469 333.503906 179.777344 333.660156 C 180.449219 333.8125 181.582031 334.226562 182.667969 334.792969 C 183.75 335.363281 184.785156 336.089844 185.355469 336.8125 C 185.921875 337.535156 186.023438 338.257812 185.921875 338.570312 C 185.820312 338.878906 185.507812 338.773438 185.097656 338.570312 C 184.679688 338.363281 184.167969 338.050781 183.597656 337.742188 C 183.027344 337.429688 182.410156 337.121094 181.734375 336.851562 C 181.0625 336.585938 180.332031 336.359375 179.71875 336.152344 C 179.105469 335.945312 178.609375 335.757812 178.199219 335.660156 C 177.789062 335.566406 177.464844 335.570312 177.355469 335.46875 C 177.246094 335.363281 177.351562 335.15625 177.296875 334.949219 C 177.246094 334.746094 177.042969 334.539062 176.988281 334.382812 C 176.9375 334.226562 177.042969 334.125 177.144531 334.019531 C 177.246094 333.917969 177.351562 333.8125 177.554688 333.8125 Z M 199.523438 340.960938 C 200.019531 340.84375 200.976562 340.6875 201.863281 340.457031 C 202.75 340.222656 203.578125 339.914062 204.402344 339.601562 C 205.230469 339.292969 206.058594 338.984375 206.882812 338.828125 C 207.710938 338.671875 208.535156 338.671875 209.207031 338.726562 C 209.875 338.773438 210.394531 338.878906 210.753906 339.035156 C 211.117188 339.191406 211.324219 339.394531 211.425781 339.601562 C 211.527344 339.808594 211.527344 340.015625 211.273438 340.222656 C 211.015625 340.429688 210.496094 340.636719 209.621094 340.792969 C 208.742188 340.949219 207.5 341.050781 206.316406 341.152344 C 205.125 341.257812 203.992188 341.359375 202.960938 341.414062 C 201.925781 341.460938 200.996094 341.460938 200.34375 341.421875 C 199.695312 341.386719 199.320312 341.304688 199.15625 341.226562 C 198.992188 341.148438 199.027344 341.074219 199.523438 340.960938 Z M 214.625 331.640625 C 214.421875 331.746094 214.214844 331.953125 213.957031 331.953125 C 213.699219 331.953125 213.390625 331.746094 213.234375 331.382812 C 213.078125 331.023438 213.078125 330.503906 213.4375 329.988281 C 213.800781 329.472656 214.523438 328.957031 215.09375 328.644531 C 215.660156 328.335938 216.074219 328.230469 216.488281 328.382812 C 216.898438 328.539062 217.3125 328.957031 217.46875 329.417969 C 217.621094 329.882812 217.519531 330.402344 217.3125 330.917969 C 217.105469 331.4375 216.796875 331.953125 216.332031 332.523438 C 215.867188 333.089844 215.246094 333.710938 214.625 334.125 C 214.007812 334.539062 213.390625 334.746094 212.769531 334.847656 C 212.148438 334.949219 211.527344 334.949219 210.753906 334.949219 C 209.980469 334.949219 209.050781 334.949219 208.175781 334.949219 C 207.296875 334.949219 206.46875 334.949219 205.644531 335.105469 C 204.820312 335.261719 203.992188 335.570312 203.167969 336.035156 C 202.339844 336.503906 201.515625 337.121094 200.792969 337.742188 C 200.070312 338.363281 199.449219 338.984375 198.9375 339.527344 C 198.429688 340.070312 198.027344 340.535156 197.820312 340.84375 C 197.617188 341.152344 197.601562 341.308594 197.589844 341.460938 C 198 341.460938 198.417969 341.460938 198.828125 341.460938 C 199.140625 340.84375 199.449219 340.222656 200.273438 339.496094 C 201.101562 338.773438 202.445312 337.949219 203.476562 337.484375 C 204.507812 337.015625 205.230469 336.914062 206.3125 336.914062 C 207.398438 336.914062 208.84375 337.015625 210.1875 337.121094 C 211.527344 337.226562 212.769531 337.328125 213.855469 337.171875 C 214.9375 337.015625 215.867188 336.605469 216.488281 336.089844 C 217.105469 335.570312 217.417969 334.949219 217.574219 334.539062 C 217.726562 334.125 217.726562 333.917969 217.621094 333.761719 C 217.519531 333.605469 217.3125 333.503906 217.46875 333.246094 C 217.621094 332.984375 218.140625 332.570312 218.65625 331.953125 C 219.171875 331.332031 219.6875 330.503906 219.949219 329.988281 C 220.203125 329.472656 220.203125 329.261719 220.050781 329.214844 C 219.894531 329.160156 219.585938 329.261719 219.273438 329.316406 C 218.964844 329.367188 218.65625 329.367188 218.65625 329.058594 C 218.65625 328.746094 218.964844 328.125 219.222656 327.660156 C 219.480469 327.195312 219.6875 326.886719 219.792969 326.472656 C 219.894531 326.058594 219.894531 325.542969 219.792969 325.335938 C 219.6875 325.128906 219.480469 325.234375 219.222656 325.4375 C 218.964844 325.644531 218.65625 325.957031 218.449219 326.214844 C 218.242188 326.472656 218.140625 326.679688 217.878906 326.78125 C 217.621094 326.886719 217.210938 326.886719 216.746094 326.835938 C 216.28125 326.78125 215.765625 326.679688 215.042969 326.78125 C 214.316406 326.886719 213.390625 327.195312 212.769531 327.660156 C 212.148438 328.125 211.839844 328.746094 211.582031 329.417969 C 211.324219 330.089844 211.117188 330.816406 211.167969 331.4375 C 211.21875 332.058594 211.527344 332.570312 211.941406 332.882812 C 212.355469 333.191406 212.871094 333.296875 213.4375 333.246094 C 214.007812 333.191406 214.625 332.984375 214.9375 332.675781 C 215.246094 332.367188 215.246094 331.953125 215.144531 331.746094 C 215.042969 331.539062 214.835938 331.539062 214.625 331.640625 Z M 186.644531 336.863281 C 186.4375 336.503906 186.128906 335.882812 185.972656 335.261719 C 185.820312 334.640625 185.820312 334.019531 186.078125 333.605469 C 186.332031 333.191406 186.851562 332.984375 187.472656 332.570312 C 188.089844 332.160156 188.8125 331.539062 189.328125 331.074219 C 189.84375 330.605469 190.152344 330.300781 190.414062 330.144531 C 190.671875 329.988281 190.875 329.988281 191.03125 330.144531 C 191.1875 330.300781 191.292969 330.605469 191.292969 331.226562 C 191.292969 331.847656 191.1875 332.78125 190.929688 333.449219 C 190.671875 334.125 190.257812 334.539062 189.691406 335.050781 C 189.121094 335.570312 188.398438 336.191406 187.933594 336.605469 C 187.472656 337.015625 187.265625 337.226562 187.109375 337.273438 C 186.953125 337.328125 186.851562 337.226562 186.644531 336.863281 Z M 192.246094 340.207031 C 192.449219 339.632812 193.316406 338.6875 194.421875 337.90625 C 195.523438 337.121094 196.867188 336.503906 197.796875 336.191406 C 198.726562 335.882812 199.242188 335.882812 199.605469 335.882812 C 199.964844 335.882812 200.171875 335.882812 200.070312 336.140625 C 199.964844 336.398438 199.550781 336.914062 198.984375 337.636719 C 198.417969 338.363281 197.695312 339.292969 197.125 339.964844 C 196.554688 340.636719 196.144531 341.050781 195.730469 341.460938 C 194.800781 341.359375 193.871094 341.257812 193.183594 341.109375 C 192.492188 340.964844 192.039062 340.773438 192.246094 340.207031 Z M 196.042969 320.476562 C 196.351562 320.066406 196.96875 319.445312 197.898438 319.027344 C 198.828125 318.617188 200.066406 318.410156 200.839844 318.769531 C 201.617188 319.132812 201.925781 320.0625 201.617188 321.148438 C 201.304688 322.234375 200.375 323.472656 199.652344 324.613281 C 198.929688 325.75 198.417969 326.78125 198.261719 327.25 C 198.105469 327.714844 198.3125 327.613281 199.242188 326.679688 C 200.171875 325.75 201.824219 323.992188 202.648438 323.167969 C 203.476562 322.335938 203.476562 322.441406 203.113281 323.476562 C 202.75 324.511719 202.027344 326.472656 201.667969 327.457031 C 201.304688 328.4375 201.304688 328.4375 201.667969 328.179688 C 202.027344 327.921875 202.75 327.402344 203.371094 326.523438 C 203.992188 325.644531 204.507812 324.40625 205.335938 323.527344 C 206.160156 322.648438 207.296875 322.132812 208.121094 322.132812 C 208.949219 322.132812 209.464844 322.648438 209.671875 323.214844 C 209.875 323.785156 209.773438 324.40625 209.515625 325.027344 C 209.257812 325.644531 208.84375 326.265625 208.640625 326.421875 C 208.433594 326.578125 208.433594 326.265625 208.277344 325.902344 C 208.121094 325.542969 207.8125 325.128906 207.296875 325.078125 C 206.777344 325.027344 206.054688 325.335938 205.488281 326.214844 C 204.921875 327.09375 204.507812 328.539062 204.042969 329.78125 C 203.578125 331.023438 203.0625 332.058594 202.492188 332.78125 C 201.925781 333.503906 201.304688 333.917969 200.636719 334.125 C 199.964844 334.328125 199.242188 334.328125 198.464844 334.226562 C 197.691406 334.125 196.867188 333.917969 196.042969 333.710938 C 195.316406 334.640625 194.59375 335.570312 193.769531 336.398438 C 192.945312 337.226562 192.015625 337.949219 191.238281 338.621094 C 190.464844 339.292969 189.84375 339.914062 189.226562 340.535156 C 188.515625 340.226562 187.808594 339.921875 187.101562 339.613281 C 188.328125 338.785156 189.550781 337.953125 190.78125 336.914062 C 192.015625 335.882812 193.25 334.640625 193.871094 333.917969 C 194.492188 333.191406 194.492188 332.984375 194.492188 332.78125 C 193.976562 332.160156 193.457031 331.539062 193.148438 330.761719 C 192.839844 329.988281 192.738281 329.058594 192.890625 328.335938 C 193.046875 327.613281 193.457031 327.09375 194.335938 326.371094 C 195.214844 325.648438 196.554688 324.714844 197.433594 323.9375 C 198.3125 323.167969 198.726562 322.546875 198.777344 322.078125 C 198.828125 321.613281 198.519531 321.304688 198.105469 321.09375 C 197.695312 320.890625 197.175781 320.789062 196.765625 320.839844 C 196.351562 320.890625 196.042969 321.097656 195.886719 321.097656 C 195.730469 321.097656 195.730469 320.890625 196.042969 320.476562 Z M 200.792969 311.433594 C 200.792969 311.277344 200.894531 311.171875 201.050781 311.222656 C 201.203125 311.277344 201.410156 311.480469 201.460938 311.945312 C 201.515625 312.414062 201.410156 313.136719 201.101562 313.65625 C 200.792969 314.167969 200.273438 314.480469 199.863281 314.636719 C 199.449219 314.789062 199.140625 314.789062 198.828125 314.425781 C 198.519531 314.066406 198.210938 313.34375 198.210938 312.671875 C 198.210938 312 198.519531 311.378906 198.570312 310.964844 C 198.621094 310.554688 198.417969 310.34375 198.261719 310.136719 C 198.105469 309.933594 198 309.722656 198.105469 309.515625 C 198.210938 309.3125 198.519531 309.105469 198.828125 309 C 199.140625 308.898438 199.449219 308.898438 199.652344 308.792969 C 199.863281 308.691406 199.964844 308.484375 200.015625 308.226562 C 200.070312 307.96875 200.070312 307.65625 200.222656 307.554688 C 200.378906 307.449219 200.6875 307.554688 200.945312 307.710938 C 201.203125 307.863281 201.410156 308.070312 201.617188 308.070312 C 201.824219 308.070312 202.027344 307.863281 202.238281 307.757812 C 202.445312 307.65625 202.648438 307.65625 202.90625 307.96875 C 203.167969 308.277344 203.476562 308.898438 203.679688 309.46875 C 203.890625 310.035156 203.992188 310.554688 204.148438 310.859375 C 204.300781 311.171875 204.507812 311.277344 204.714844 311.121094 C 204.921875 310.964844 205.125 310.554688 205.335938 310.136719 C 205.542969 309.722656 205.746094 309.3125 205.953125 309.054688 C 206.160156 308.792969 206.367188 308.691406 206.46875 308.433594 C 206.574219 308.175781 206.574219 307.757812 206.574219 307.398438 C 206.574219 307.035156 206.574219 306.726562 206.625 306.519531 C 206.675781 306.3125 206.777344 306.210938 207.039062 306.15625 C 207.296875 306.105469 207.710938 306.105469 207.863281 305.691406 C 208.019531 305.277344 207.917969 304.453125 207.964844 303.675781 C 208.019531 302.902344 208.222656 302.179688 208.382812 301.660156 C 208.535156 301.144531 208.640625 300.832031 208.84375 300.78125 C 209.050781 300.730469 209.363281 300.9375 209.515625 301.347656 C 209.671875 301.765625 209.671875 302.386719 209.671875 303.003906 C 209.671875 303.625 209.671875 304.246094 209.566406 304.8125 C 209.464844 305.382812 209.257812 305.898438 209.257812 306.15625 C 209.257812 306.414062 209.464844 306.414062 209.671875 306.46875 C 209.875 306.519531 210.085938 306.625 210.238281 306.777344 C 210.394531 306.933594 210.496094 307.140625 210.445312 307.398438 C 210.394531 307.65625 210.1875 307.96875 209.980469 308.328125 C 209.773438 308.691406 209.566406 309.105469 209.621094 309.363281 C 209.671875 309.621094 209.980469 309.726562 210.1875 309.933594 C 210.394531 310.136719 210.496094 310.449219 210.550781 310.8125 C 210.597656 311.171875 210.597656 311.585938 210.597656 311.84375 C 210.597656 312.101562 210.597656 312.203125 210.808594 312 C 211.015625 311.792969 211.425781 311.277344 211.890625 310.859375 C 212.355469 310.449219 212.871094 310.136719 213.183594 309.980469 C 213.492188 309.828125 213.59375 309.828125 213.699219 309.980469 C 213.800781 310.136719 213.90625 310.449219 214.113281 310.65625 C 214.320312 310.859375 214.625 310.964844 214.9375 311.015625 C 215.246094 311.070312 215.558594 311.070312 215.710938 311.222656 C 215.867188 311.378906 215.867188 311.691406 215.867188 311.894531 C 215.867188 312.101562 215.867188 312.203125 215.96875 312.414062 C 216.074219 312.621094 216.28125 312.929688 216.539062 313.1875 C 216.796875 313.445312 217.105469 313.65625 217.054688 313.808594 C 217 313.960938 216.589844 314.066406 216.332031 314.222656 C 216.074219 314.378906 215.96875 314.582031 215.8125 315.046875 C 215.660156 315.515625 215.453125 316.238281 215.042969 316.804688 C 214.625 317.375 214.007812 317.789062 213.542969 317.945312 C 213.078125 318.101562 212.769531 317.996094 212.511719 317.632812 C 212.25 317.269531 212.046875 316.648438 212.097656 316.03125 C 212.148438 315.410156 212.460938 314.789062 212.769531 314.378906 C 213.078125 313.960938 213.390625 313.757812 213.492188 313.859375 C 213.59375 313.960938 213.492188 314.378906 213.390625 314.84375 C 213.285156 315.304688 213.183594 315.824219 213.390625 316.03125 C 213.59375 316.238281 214.113281 316.136719 214.472656 315.773438 C 214.835938 315.410156 215.042969 314.789062 214.988281 314.222656 C 214.9375 313.65625 214.625 313.136719 214.160156 312.929688 C 213.699219 312.722656 213.078125 312.824219 212.511719 313.238281 C 211.941406 313.65625 211.425781 314.378906 211.0625 315.152344 C 210.703125 315.925781 210.496094 316.753906 210.136719 317.53125 C 209.773438 318.304688 209.257812 319.027344 208.535156 319.390625 C 207.8125 319.753906 206.882812 319.753906 205.902344 319.546875 C 204.921875 319.339844 203.890625 318.925781 203.214844 318.511719 C 202.546875 318.101562 202.238281 317.683594 202.238281 316.910156 C 202.238281 316.136719 202.546875 315 202.703125 314.066406 C 202.855469 313.136719 202.855469 312.414062 202.703125 311.738281 C 202.546875 311.070312 202.238281 310.449219 201.71875 310.136719 C 201.203125 309.828125 200.480469 309.828125 200.015625 310.085938 C 199.550781 310.34375 199.34375 310.859375 199.242188 311.378906 C 199.140625 311.894531 199.140625 312.414062 199.34375 312.773438 C 199.550781 313.136719 199.964844 313.34375 200.273438 313.1875 C 200.585938 313.035156 200.792969 312.515625 200.839844 312.15625 C 200.894531 311.792969 200.792969 311.585938 200.792969 311.433594 Z M 232.492188 286.878906 C 232.285156 287.082031 232.285156 287.601562 232.394531 288.332031 C 232.507812 289.066406 232.734375 290.011719 233.148438 290.476562 C 233.558594 290.945312 234.160156 290.925781 234.722656 290.710938 C 235.28125 290.496094 235.796875 290.082031 236.054688 289.769531 C 236.3125 289.460938 236.3125 289.253906 236.15625 289.101562 C 236.003906 288.945312 235.691406 288.84375 235.332031 288.6875 C 234.96875 288.53125 234.558594 288.324219 234.246094 288.011719 C 233.9375 287.703125 233.734375 287.289062 233.421875 287.03125 C 233.113281 286.773438 232.699219 286.667969 232.492188 286.878906 Z M 232.082031 290.339844 C 231.871094 290.390625 231.769531 290.804688 231.71875 291.375 C 231.667969 291.941406 231.667969 292.667969 231.871094 293.183594 C 232.082031 293.699219 232.492188 294.011719 232.90625 294.011719 C 233.316406 294.011719 233.734375 293.699219 233.9375 293.335938 C 234.144531 292.976562 234.144531 292.5625 233.9375 292.148438 C 233.734375 291.734375 233.316406 291.324219 232.957031 290.960938 C 232.59375 290.597656 232.285156 290.289062 232.078125 290.339844 Z M 232.546875 284.34375 C 232.59375 284.1875 232.90625 283.980469 233.316406 283.980469 C 233.734375 283.980469 234.246094 284.1875 234.609375 284.445312 C 234.96875 284.707031 235.175781 285.015625 235.488281 285.222656 C 235.796875 285.429688 236.210938 285.53125 236.472656 285.539062 C 236.742188 285.546875 236.859375 285.453125 236.964844 285.453125 C 237.066406 285.453125 237.152344 285.546875 237.25 285.796875 C 237.34375 286.050781 237.445312 286.464844 237.34375 286.773438 C 237.242188 287.082031 236.933594 287.289062 236.621094 287.390625 C 236.3125 287.496094 236.003906 287.496094 235.589844 287.390625 C 235.175781 287.289062 234.660156 287.082031 234.246094 286.773438 C 233.835938 286.464844 233.523438 286.046875 233.316406 285.6875 C 233.113281 285.324219 233.007812 285.015625 232.851562 284.808594 C 232.699219 284.601562 232.492188 284.5 232.546875 284.34375 Z M 229.136719 287.546875 C 229.496094 287.703125 230.117188 288.222656 230.425781 288.789062 C 230.738281 289.355469 230.738281 289.976562 230.683594 290.546875 C 230.636719 291.113281 230.53125 291.632812 230.21875 291.992188 C 229.910156 292.355469 229.394531 292.5625 228.984375 292.71875 C 228.566406 292.875 228.261719 292.976562 228.105469 292.820312 C 227.949219 292.667969 227.949219 292.253906 228.050781 291.890625 C 228.15625 291.53125 228.363281 291.21875 228.464844 290.753906 C 228.566406 290.289062 228.566406 289.667969 228.566406 289.152344 C 228.566406 288.632812 228.566406 288.222656 228.621094 287.910156 C 228.671875 287.601562 228.773438 287.390625 229.136719 287.546875 Z M 227.640625 286.515625 C 227.742188 286.773438 227.84375 287.289062 227.898438 287.910156 C 227.949219 288.53125 227.949219 289.253906 227.691406 289.925781 C 227.433594 290.597656 226.914062 291.21875 226.347656 291.578125 C 225.78125 291.941406 225.160156 292.046875 224.746094 291.941406 C 224.335938 291.835938 224.128906 291.53125 224.234375 291.167969 C 224.335938 290.804688 224.746094 290.390625 225.058594 290.03125 C 225.367188 289.667969 225.574219 289.355469 225.730469 288.890625 C 225.882812 288.429688 225.988281 287.808594 226.140625 287.390625 C 226.296875 286.980469 226.503906 286.773438 226.710938 286.621094 C 226.914062 286.464844 227.121094 286.359375 227.277344 286.308594 C 227.433594 286.257812 227.535156 286.257812 227.640625 286.515625 Z M 226.191406 280.984375 C 226.296875 281.191406 226.191406 281.707031 226.140625 282.222656 C 226.089844 282.742188 226.089844 283.257812 226.246094 283.722656 C 226.398438 284.1875 226.710938 284.601562 226.863281 284.964844 C 227.019531 285.324219 227.019531 285.636719 226.863281 285.789062 C 226.710938 285.945312 226.398438 285.945312 226.035156 285.945312 C 225.675781 285.945312 225.265625 285.945312 224.953125 286.152344 C 224.644531 286.359375 224.4375 286.773438 224.179688 287.289062 C 223.921875 287.808594 223.613281 288.429688 223.300781 288.84375 C 222.992188 289.253906 222.683594 289.460938 222.425781 289.355469 C 222.167969 289.253906 221.960938 288.84375 221.855469 288.222656 C 221.753906 287.601562 221.753906 286.773438 222.167969 285.789062 C 222.578125 284.808594 223.40625 283.671875 224.023438 282.84375 C 224.644531 282.019531 225.058594 281.5 225.421875 281.191406 C 225.78125 280.878906 226.089844 280.777344 226.191406 280.984375 Z M 234.765625 277.261719 C 234.246094 277.261719 233.734375 277.261719 233.269531 277.261719 C 232.800781 277.261719 232.390625 277.261719 231.976562 277.367188 C 231.5625 277.46875 231.148438 277.675781 230.789062 277.832031 C 230.425781 277.984375 230.117188 278.089844 229.960938 278.191406 C 229.808594 278.296875 229.808594 278.398438 230.066406 278.5 C 230.324219 278.605469 230.839844 278.710938 231.203125 278.917969 C 231.5625 279.121094 231.769531 279.433594 231.925781 279.796875 C 232.082031 280.15625 232.183594 280.570312 232.285156 280.984375 C 232.390625 281.398438 232.492188 281.8125 232.59375 282.070312 C 232.699219 282.328125 232.800781 282.433594 232.957031 282.433594 C 233.113281 282.433594 233.316406 282.328125 233.578125 282.121094 C 233.835938 281.914062 234.144531 281.601562 234.300781 281.34375 C 234.457031 281.085938 234.457031 280.878906 234.609375 280.777344 C 234.765625 280.675781 235.074219 280.675781 235.335938 280.8125 C 235.597656 280.949219 235.808594 281.226562 235.960938 281.382812 C 236.117188 281.539062 236.214844 281.570312 236.160156 281.222656 C 236.109375 280.878906 235.898438 280.15625 235.691406 279.535156 C 235.488281 278.917969 235.28125 278.398438 235.125 278.035156 C 234.96875 277.675781 234.867188 277.46875 234.765625 277.261719 Z M 230.21875 274.316406 C 230.53125 273.746094 231.253906 272.710938 231.71875 272.144531 C 232.183594 271.574219 232.390625 271.472656 232.59375 271.367188 C 232.800781 271.988281 233.007812 272.609375 233.164062 273.023438 C 233.316406 273.433594 233.421875 273.644531 233.523438 273.851562 C 233.113281 273.953125 232.699219 274.054688 232.128906 274.265625 C 231.5625 274.472656 230.839844 274.78125 230.425781 274.886719 C 230.015625 274.988281 229.910156 274.886719 230.21875 274.316406 Z M 213.128906 287.808594 C 213.492188 287.703125 214.214844 287.289062 214.578125 287.1875 C 214.9375 287.082031 214.9375 287.289062 214.988281 287.546875 C 215.042969 287.808594 215.144531 288.117188 215.351562 288.066406 C 215.558594 288.011719 215.867188 287.601562 216.488281 286.515625 C 217.105469 285.429688 218.035156 283.671875 219.375 282.121094 C 220.71875 280.570312 222.472656 279.226562 223.148438 278.5 C 223.816406 277.777344 223.40625 277.675781 222.324219 277.984375 C 221.238281 278.296875 219.480469 279.019531 217.933594 280 C 216.386719 280.984375 215.042969 282.222656 214.320312 283.050781 C 213.59375 283.878906 213.492188 284.292969 213.4375 284.65625 C 213.390625 285.015625 213.390625 285.324219 213.390625 285.636719 C 213.390625 285.945312 213.390625 286.257812 213.285156 286.566406 C 213.183594 286.878906 212.972656 287.1875 212.871094 287.445312 C 212.769531 287.703125 212.769531 287.910156 213.128906 287.808594 Z M 225.78125 259.585938 C 225.882812 259.789062 225.988281 260.308594 226.398438 261.082031 C 226.8125 261.855469 227.535156 262.894531 228.207031 263.875 C 228.878906 264.855469 229.496094 265.785156 229.910156 266.71875 C 230.324219 267.644531 230.53125 268.578125 230.375 269.507812 C 230.21875 270.441406 229.703125 271.367188 229.238281 271.988281 C 228.773438 272.609375 228.363281 272.921875 228.105469 273.074219 C 227.84375 273.230469 227.742188 273.230469 227.585938 272.710938 C 227.433594 272.195312 227.222656 271.164062 226.8125 270.285156 C 226.398438 269.40625 225.78125 268.679688 225.316406 267.542969 C 224.847656 266.40625 224.542969 264.855469 224.4375 263.5625 C 224.335938 262.273438 224.4375 261.238281 224.644531 260.617188 C 224.847656 259.996094 225.160156 259.789062 225.46875 259.585938 C 225.570312 259.476562 225.675781 259.375 225.78125 259.585938 Z M 216.175781 266.097656 C 217 266.097656 217.828125 266.097656 218.808594 266.457031 C 219.792969 266.820312 220.925781 267.542969 221.648438 268.523438 C 222.371094 269.507812 222.683594 270.746094 223.09375 271.886719 C 223.507812 273.023438 224.023438 274.054688 224.539062 275.089844 C 223.714844 275.507812 222.890625 275.917969 221.90625 275.867188 C 220.925781 275.8125 219.792969 275.296875 219.121094 274.210938 C 218.449219 273.125 218.242188 271.472656 217.933594 270.179688 C 217.621094 268.886719 217.210938 267.957031 216.898438 267.335938 C 216.589844 266.71875 216.386719 266.40625 216.175781 266.097656 Z M 217.675781 241.628906 C 217.074219 241.515625 216.472656 241.398438 216.011719 241.5 C 215.558594 241.59375 215.246094 241.90625 215.246094 242.574219 C 215.246094 243.25 215.558594 244.28125 216.230469 245.316406 C 216.898438 246.351562 217.933594 247.382812 219.066406 248.261719 C 220.203125 249.140625 221.441406 249.863281 222.355469 250.878906 C 223.269531 251.890625 223.859375 253.195312 224.066406 254.488281 C 224.273438 255.78125 224.097656 257.0625 223.800781 258.0625 C 223.507812 259.066406 223.09375 259.789062 222.683594 260.511719 C 222.472656 259.375 222.269531 258.238281 221.960938 257.050781 C 221.648438 255.863281 221.238281 254.621094 220.097656 253.328125 C 218.964844 252.039062 217.105469 250.695312 215.453125 249.140625 C 213.800781 247.589844 212.355469 245.832031 211.480469 244.230469 C 210.597656 242.628906 210.292969 241.183594 210.550781 240.199219 C 210.808594 239.21875 211.632812 238.699219 212.5625 238.597656 C 213.492188 238.492188 214.523438 238.804688 215.402344 239.265625 C 216.28125 239.730469 217 240.351562 217.355469 240.773438 C 217.707031 241.191406 217.691406 241.410156 217.675781 241.628906 Z M 210.339844 246.972656 C 211.117188 247.59375 212.5625 248.933594 214.265625 250.585938 C 215.96875 252.242188 217.933594 254.207031 219.066406 255.808594 C 220.203125 257.410156 220.515625 258.652344 220.617188 259.53125 C 220.71875 260.410156 220.617188 260.929688 220.515625 261.445312 C 221.546875 263.410156 222.578125 265.375 223.765625 267.90625 C 224.953125 270.441406 226.296875 273.539062 227.070312 275.351562 C 227.84375 277.15625 228.050781 277.675781 228.308594 278.140625 C 228.566406 278.605469 228.878906 279.019531 229.289062 279.484375 C 229.703125 279.953125 230.21875 280.464844 230.53125 280.984375 C 230.839844 281.5 230.941406 282.019531 230.941406 283.15625 C 230.941406 284.292969 230.839844 286.046875 230.738281 286.929688 C 230.636719 287.808594 230.53125 287.808594 230.066406 287.34375 C 229.597656 286.878906 228.773438 285.945312 228.15625 285.066406 C 227.535156 284.1875 227.121094 283.363281 227.019531 282.585938 C 226.914062 281.8125 227.121094 281.085938 227.222656 280.519531 C 227.328125 279.953125 227.328125 279.535156 227.070312 278.761719 C 226.8125 277.984375 226.296875 276.847656 225.625 275.191406 C 224.953125 273.539062 224.128906 271.367188 223.042969 269.042969 C 221.960938 266.71875 220.617188 264.234375 219.273438 261.753906 C 218.761719 261.550781 218.242188 261.339844 217.621094 260.824219 C 217 260.308594 216.28125 259.480469 215.503906 258.289062 C 214.730469 257.101562 213.902344 255.550781 213.183594 254 C 212.460938 252.449219 211.839844 250.898438 211.21875 249.65625 C 210.601562 248.417969 209.980469 247.488281 209.722656 246.972656 C 209.464844 246.453125 209.566406 246.351562 210.339844 246.972656 Z M 204.09375 255.550781 C 204.09375 254.929688 204.09375 254.308594 204.355469 253.742188 C 204.613281 253.171875 205.125 252.65625 205.800781 252.65625 C 206.46875 252.65625 207.296875 253.171875 207.917969 254.105469 C 208.535156 255.03125 208.949219 256.378906 209.414062 257.824219 C 209.875 259.273438 210.394531 260.824219 211.21875 261.960938 C 212.046875 263.097656 213.183594 263.820312 214.214844 264.183594 C 215.246094 264.542969 216.175781 264.542969 217 264.441406 C 217.828125 264.339844 218.550781 264.132812 219.273438 263.925781 C 218.140625 263.410156 217 262.890625 215.96875 261.910156 C 214.9375 260.929688 214.007812 259.480469 213.289062 257.980469 C 212.5625 256.484375 212.046875 254.929688 211.375 253.484375 C 210.703125 252.039062 209.875 250.695312 208.949219 249.605469 C 208.019531 248.519531 206.988281 247.695312 205.953125 247.488281 C 204.921875 247.28125 203.890625 247.695312 203.167969 248.46875 C 202.445312 249.242188 202.027344 250.382812 201.980469 251.464844 C 201.925781 252.554688 202.238281 253.585938 202.648438 254.261719 C 203.0625 254.929688 203.578125 255.242188 204.09375 255.550781 Z M 206.832031 275.867188 C 205.644531 275.8125 204.402344 275.917969 203.113281 276.382812 C 201.824219 276.851562 200.480469 277.675781 199.605469 278.398438 C 198.726562 279.121094 198.3125 279.742188 198.054688 280 C 197.796875 280.261719 197.691406 280.15625 197.796875 279.589844 C 197.898438 279.019531 198.210938 277.984375 198.519531 276.953125 C 197.796875 276.953125 197.074219 276.953125 196.8125 276.796875 C 196.554688 276.640625 196.765625 276.332031 197.277344 275.867188 C 197.796875 275.402344 198.621094 274.78125 198.882812 274.417969 C 199.140625 274.054688 198.828125 273.953125 198.882812 273.746094 C 198.929688 273.539062 199.34375 273.230469 200.117188 272.765625 C 200.894531 272.300781 202.027344 271.679688 203.527344 271.421875 C 205.023438 271.164062 206.882812 271.265625 208.328125 271.886719 C 209.773438 272.507812 210.808594 273.644531 211.375 274.367188 C 211.941406 275.089844 212.046875 275.402344 211.789062 275.65625 C 211.527344 275.917969 210.910156 276.125 210.03125 276.125 C 209.152344 276.125 208.019531 275.917969 206.832031 275.867188 Z M 201.359375 257.617188 C 201.617188 257.617188 202.238281 257.828125 202.855469 258.394531 C 203.476562 258.964844 204.09375 259.894531 204.457031 260.71875 C 204.820312 261.550781 204.921875 262.273438 204.664062 263.046875 C 204.402344 263.820312 203.785156 264.648438 203.167969 265.164062 C 202.546875 265.683594 201.925781 265.890625 201.71875 265.785156 C 201.515625 265.683594 201.71875 265.269531 202.027344 264.542969 C 202.339844 263.820312 202.75 262.789062 202.75 261.855469 C 202.75 260.929688 202.339844 260.097656 202.027344 259.480469 C 201.71875 258.859375 201.515625 258.445312 201.359375 258.132812 C 201.203125 257.828125 201.101562 257.617188 201.359375 257.617188 Z M 197.589844 263.925781 C 197.898438 264.03125 198.210938 264.132812 198.621094 264.03125 C 199.035156 263.925781 199.550781 263.617188 199.652344 263.046875 C 199.757812 262.476562 199.449219 261.652344 198.929688 260.976562 C 198.417969 260.308594 197.695312 259.789062 196.867188 259.738281 C 196.042969 259.6875 195.113281 260.097656 194.542969 260.929688 C 193.976562 261.753906 193.769531 262.996094 194.179688 264.234375 C 194.59375 265.476562 195.625 266.71875 196.867188 267.386719 C 198.105469 268.0625 199.550781 268.164062 201.667969 268.21875 C 203.785156 268.265625 206.574219 268.265625 208.382812 268.523438 C 210.1875 268.785156 211.015625 269.300781 211.890625 270.128906 C 212.769531 270.957031 213.699219 272.089844 214.113281 273.488281 C 214.523438 274.886719 214.421875 276.539062 214.265625 277.777344 C 214.113281 279.019531 213.902344 279.847656 213.699219 280.363281 C 213.492188 280.878906 213.285156 281.085938 213.027344 281.035156 C 212.769531 280.984375 212.460938 280.675781 212.511719 280.210938 C 212.5625 279.742188 212.972656 279.121094 213.183594 278.089844 C 213.390625 277.054688 213.390625 275.609375 212.871094 274.160156 C 212.355469 272.710938 211.324219 271.265625 210.03125 270.441406 C 208.742188 269.609375 207.191406 269.40625 205.488281 269.558594 C 203.785156 269.714844 201.925781 270.230469 200.222656 270.59375 C 198.519531 270.957031 196.96875 271.164062 195.578125 271.164062 C 194.179688 271.164062 192.945312 270.957031 192.117188 270.542969 C 191.292969 270.128906 190.875 269.507812 190.828125 269.042969 C 190.773438 268.578125 191.082031 268.265625 191.394531 268.113281 C 191.703125 267.957031 192.015625 267.957031 192.324219 267.957031 C 191.804688 267.441406 191.292969 266.921875 190.773438 266.148438 C 190.257812 265.375 189.742188 264.339844 189.484375 263.667969 C 189.226562 262.996094 189.226562 262.683594 189.429688 262.476562 C 189.640625 262.273438 190.050781 262.167969 190.515625 262.21875 C 190.980469 262.273438 191.496094 262.476562 191.652344 262.425781 C 191.804688 262.375 191.601562 262.0625 191.339844 261.445312 C 191.082031 260.824219 190.773438 259.894531 190.722656 259.222656 C 190.671875 258.550781 190.875 258.132812 191.136719 257.875 C 191.394531 257.617188 191.703125 257.515625 191.960938 257.617188 C 192.21875 257.722656 192.425781 258.03125 192.632812 258.34375 C 192.839844 258.652344 193.046875 258.964844 193.25 259.015625 C 193.457031 259.066406 193.667969 258.859375 194.027344 258.550781 C 194.390625 258.238281 194.902344 257.828125 195.730469 257.671875 C 196.554688 257.515625 197.695312 257.617188 198.675781 258.03125 C 199.652344 258.445312 200.480469 259.167969 200.996094 260.050781 C 201.515625 260.929688 201.71875 261.960938 201.617188 262.996094 C 201.515625 264.03125 201.101562 265.0625 200.585938 265.683594 C 200.070312 266.304688 199.449219 266.507812 198.828125 266.355469 C 198.210938 266.199219 197.589844 265.683594 197.382812 265.21875 C 197.175781 264.753906 197.382812 264.339844 197.589844 263.925781 Z M 196.917969 228.359375 C 196.554688 227.949219 196.144531 227.636719 195.730469 227.636719 C 195.316406 227.636719 194.902344 227.949219 194.855469 228.414062 C 194.800781 228.875 195.113281 229.496094 195.78125 230.070312 C 196.453125 230.636719 197.488281 231.152344 198.3125 231.617188 C 199.140625 232.082031 199.757812 232.496094 200.070312 232.804688 C 200.375 233.117188 200.375 233.324219 200.222656 233.375 C 200.066406 233.425781 199.757812 233.324219 199.242188 232.960938 C 198.726562 232.601562 198 231.980469 197.382812 231.617188 C 196.765625 231.257812 196.246094 231.152344 195.832031 231.253906 C 195.421875 231.359375 195.113281 231.671875 195.058594 232.03125 C 195.007812 232.394531 195.214844 232.804688 195.78125 233.425781 C 196.351562 234.046875 197.277344 234.875 197.796875 235.441406 C 198.3125 236.011719 198.417969 236.320312 198.417969 236.476562 C 198.417969 236.632812 198.3125 236.632812 198.003906 236.527344 C 197.695312 236.425781 197.175781 236.21875 196.710938 235.804688 C 196.246094 235.390625 195.832031 234.769531 195.472656 234.203125 C 195.113281 233.636719 194.800781 233.117188 194.390625 232.652344 C 193.976562 232.1875 193.457031 231.773438 193.046875 231.515625 C 192.632812 231.257812 192.324219 231.152344 192.015625 231.253906 C 191.703125 231.359375 191.394531 231.671875 191.445312 232.136719 C 191.496094 232.597656 191.910156 233.21875 192.527344 233.683594 C 193.148438 234.152344 193.976562 234.460938 194.542969 234.820312 C 195.113281 235.183594 195.421875 235.597656 195.578125 236.011719 C 195.730469 236.425781 195.730469 236.839844 195.9375 237.25 C 196.144531 237.664062 196.554688 238.082031 197.074219 238.386719 C 197.589844 238.699219 198.210938 238.90625 198.726562 239.21875 C 199.242188 239.527344 199.652344 239.941406 200.070312 240.40625 C 200.480469 240.871094 200.894531 241.386719 201.410156 241.695312 C 201.925781 242.007812 202.546875 242.109375 203.113281 242.164062 C 203.679688 242.214844 204.199219 242.214844 204.664062 241.90625 C 205.125 241.59375 205.542969 240.972656 205.695312 240.300781 C 205.851562 239.628906 205.746094 238.90625 205.4375 238.339844 C 205.125 237.769531 204.613281 237.355469 204.148438 236.785156 C 203.679688 236.21875 203.269531 235.496094 202.960938 234.71875 C 202.648438 233.941406 202.445312 233.117188 202.027344 232.496094 C 201.617188 231.875 200.996094 231.460938 200.480469 231.253906 C 199.964844 231.050781 199.550781 231.050781 199.140625 230.839844 C 198.726562 230.636719 198.3125 230.21875 197.953125 229.757812 C 197.589844 229.292969 197.277344 228.773438 196.917969 228.359375 Z M 195.007812 243.558594 C 194.800781 243.144531 194.492188 242.835938 194.132812 242.628906 C 193.769531 242.421875 193.355469 242.316406 193.304688 242.109375 C 193.25 241.90625 193.5625 241.59375 194.078125 241.59375 C 194.59375 241.59375 195.316406 241.90625 195.78125 242.472656 C 196.246094 243.042969 196.453125 243.867188 196.300781 244.59375 C 196.144531 245.316406 195.625 245.9375 195.113281 246.195312 C 194.59375 246.453125 194.078125 246.351562 193.613281 246.039062 C 193.148438 245.730469 192.738281 245.210938 192.324219 244.796875 C 191.910156 244.386719 191.496094 244.074219 191.136719 243.867188 C 190.773438 243.664062 190.464844 243.558594 190.414062 243.300781 C 190.363281 243.042969 190.570312 242.628906 190.671875 242.265625 C 190.773438 241.90625 190.773438 241.59375 190.570312 241.335938 C 190.363281 241.078125 189.949219 240.871094 189.792969 240.609375 C 189.640625 240.351562 189.742188 240.042969 190.050781 239.785156 C 190.363281 239.527344 190.875 239.320312 191.238281 239.21875 C 191.601562 239.113281 191.804688 239.113281 191.703125 239.007812 C 191.601562 238.90625 191.1875 238.699219 191.136719 238.386719 C 191.082031 238.082031 191.394531 237.664062 191.910156 237.613281 C 192.425781 237.5625 193.148438 237.871094 194.027344 238.339844 C 194.902344 238.804688 195.9375 239.421875 196.96875 240.199219 C 198 240.972656 199.035156 241.90625 199.914062 242.527344 C 200.792969 243.144531 201.515625 243.453125 202.238281 243.609375 C 202.960938 243.765625 203.679688 243.765625 204.25 243.765625 C 204.820312 243.765625 205.230469 243.765625 205.644531 243.765625 C 205.230469 244.175781 204.820312 244.59375 204.09375 244.851562 C 203.371094 245.109375 202.339844 245.214844 201.410156 244.953125 C 200.480469 244.695312 199.652344 244.074219 198.882812 243.351562 C 198.105469 242.628906 197.382812 241.800781 196.609375 241.183594 C 195.832031 240.5625 195.007812 240.148438 194.285156 240.09375 C 193.5625 240.042969 192.945312 240.351562 192.527344 240.820312 C 192.117188 241.285156 191.910156 241.90625 192.015625 242.574219 C 192.117188 243.25 192.527344 243.972656 193.148438 244.386719 C 193.769531 244.796875 194.59375 244.902344 194.957031 244.695312 C 195.320312 244.488281 195.214844 243.972656 195.007812 243.558594 Z M 193.871094 235.703125 C 193.148438 235.285156 192.425781 234.875 191.652344 234.5625 C 190.875 234.253906 190.050781 234.046875 189.429688 234.203125 C 188.8125 234.359375 188.398438 234.875 188.398438 235.390625 C 188.398438 235.90625 188.8125 236.425781 189.429688 236.632812 C 190.050781 236.839844 190.875 236.738281 191.496094 236.527344 C 192.117188 236.320312 192.527344 236.011719 192.890625 235.855469 C 193.25 235.703125 193.5625 235.703125 193.871094 235.703125 Z M 207.710938 232.1875 C 207.5 232.082031 207.191406 231.875 206.988281 231.515625 C 206.777344 231.152344 206.675781 230.636719 206.46875 230.429688 C 206.265625 230.21875 205.953125 230.324219 205.800781 230.738281 C 205.644531 231.152344 205.644531 231.875 205.953125 232.496094 C 206.265625 233.117188 206.882812 233.636719 207.605469 233.789062 C 208.328125 233.941406 209.152344 233.738281 209.671875 233.273438 C 210.1875 232.804688 210.394531 232.082031 210.292969 231.460938 C 210.1875 230.839844 209.773438 230.324219 209.308594 229.859375 C 208.84375 229.394531 208.328125 228.980469 208.070312 228.515625 C 207.8125 228.050781 207.8125 227.535156 207.761719 227.226562 C 207.710938 226.914062 207.605469 226.808594 207.347656 226.863281 C 207.089844 226.914062 206.675781 227.121094 206.367188 227.273438 C 206.054688 227.429688 205.851562 227.535156 205.746094 227.535156 C 205.644531 227.535156 205.644531 227.429688 205.542969 227.226562 C 205.4375 227.015625 205.230469 226.707031 204.921875 226.605469 C 204.613281 226.5 204.199219 226.605469 203.890625 226.863281 C 203.578125 227.121094 203.371094 227.535156 203.214844 227.792969 C 203.0625 228.050781 202.960938 228.152344 202.855469 228.101562 C 202.75 228.050781 202.648438 227.84375 202.445312 227.792969 C 202.238281 227.742188 201.925781 227.84375 201.773438 228.152344 C 201.617188 228.464844 201.617188 228.980469 201.875 229.757812 C 202.132812 230.53125 202.648438 231.566406 203.214844 232.496094 C 203.785156 233.425781 204.402344 234.253906 205.023438 235.238281 C 205.644531 236.21875 206.265625 237.355469 206.625 238.597656 C 206.988281 239.835938 207.089844 241.183594 207.191406 242.527344 C 207.8125 241.90625 208.433594 241.285156 208.792969 240.664062 C 209.152344 240.042969 209.257812 239.421875 208.84375 238.597656 C 208.433594 237.769531 207.5 236.738281 206.574219 235.546875 C 205.644531 234.359375 204.714844 233.015625 204.355469 231.824219 C 203.992188 230.636719 204.199219 229.601562 204.664062 229.136719 C 205.125 228.671875 205.851562 228.773438 206.574219 229.085938 C 207.296875 229.394531 208.019531 229.914062 208.433594 230.480469 C 208.84375 231.050781 208.949219 231.671875 208.84375 231.980469 C 208.742188 232.292969 208.433594 232.292969 208.226562 232.292969 C 208.019531 232.292969 207.917969 232.292969 207.710938 232.1875 Z M 198.519531 229.496094 C 198.519531 228.980469 198.519531 228.464844 198.621094 228.050781 C 198.726562 227.636719 198.929688 227.328125 198.882812 226.808594 C 198.828125 226.292969 198.519531 225.570312 198.15625 225.15625 C 197.796875 224.742188 197.382812 224.640625 197.019531 224.847656 C 196.660156 225.050781 196.351562 225.570312 196.402344 226.136719 C 196.453125 226.707031 196.867188 227.328125 197.277344 227.894531 C 197.695312 228.464844 198.105469 228.980469 198.519531 229.496094 Z M 198.519531 229.496094 " fill-opacity="1" fill-rule="evenodd"/><path fill="#630e2b" d="M 138.109375 78.453125 C 144.441406 78.453125 149.574219 83.59375 149.574219 89.929688 C 149.574219 96.265625 144.441406 101.40625 138.109375 101.40625 C 131.78125 101.40625 126.648438 96.265625 126.648438 89.929688 C 126.648438 83.59375 131.78125 78.453125 138.109375 78.453125 Z M 144.035156 67.511719 L 145.679688 70.230469 C 145.980469 70.730469 145.820312 71.390625 145.320312 71.691406 L 142.601562 73.339844 C 142.101562 73.640625 141.449219 73.480469 141.148438 72.980469 L 139.503906 70.257812 C 139.203125 69.757812 139.363281 69.101562 139.863281 68.796875 L 142.578125 67.152344 C 143.078125 66.851562 143.734375 67.011719 144.035156 67.511719 Z M 137.089844 106.746094 L 139.253906 109.074219 C 139.652344 109.5 139.628906 110.175781 139.203125 110.574219 L 136.878906 112.746094 C 136.449219 113.140625 135.777344 113.121094 135.378906 112.691406 L 133.214844 110.367188 C 132.8125 109.9375 132.839844 109.261719 133.261719 108.863281 L 135.589844 106.695312 C 136.015625 106.296875 136.691406 106.320312 137.089844 106.746094 Z M 136.253906 86.929688 C 135.839844 87.34375 135.113281 88.171875 134.753906 88.84375 C 134.390625 89.515625 134.390625 90.035156 134.703125 90.703125 C 135.011719 91.375 135.632812 92.203125 136.199219 92.617188 C 136.765625 93.03125 137.285156 93.03125 137.851562 92.980469 C 138.417969 92.925781 139.039062 92.824219 139.503906 92.617188 C 139.96875 92.410156 140.28125 92.101562 140.539062 91.480469 C 140.796875 90.859375 141.003906 89.929688 141.050781 89.308594 C 141.105469 88.691406 141.003906 88.378906 140.691406 88.070312 C 140.382812 87.757812 139.863281 87.449219 139.296875 87.191406 C 138.730469 86.929688 138.109375 86.726562 137.699219 86.621094 C 137.285156 86.515625 137.078125 86.515625 136.921875 86.515625 C 136.765625 86.515625 136.664062 86.515625 136.253906 86.929688 Z M 145.5625 86.871094 C 144.023438 87.382812 142.914062 88.835938 142.914062 90.550781 C 142.914062 92.066406 143.785156 93.378906 145.050781 94.015625 C 145.757812 92.820312 146.164062 91.421875 146.164062 89.929688 C 146.164062 88.84375 145.949219 87.8125 145.5625 86.871094 Z M 140.28125 95.046875 C 138.515625 95.046875 137.027344 96.226562 136.558594 97.839844 C 137.0625 97.941406 137.578125 97.988281 138.109375 97.988281 C 139.992188 97.988281 141.722656 97.34375 143.09375 96.261719 C 142.390625 95.511719 141.386719 95.046875 140.28125 95.046875 Z M 133.925781 94.890625 C 133.925781 92.773438 132.234375 91.054688 130.132812 91.015625 C 130.441406 93.316406 131.722656 95.3125 133.546875 96.570312 C 133.789062 96.0625 133.925781 95.496094 133.925781 94.890625 Z M 134.425781 82.757812 C 132.507812 83.746094 131.039062 85.488281 130.402344 87.59375 C 130.492188 87.601562 130.585938 87.601562 130.675781 87.601562 C 132.8125 87.601562 134.546875 85.867188 134.546875 83.726562 C 134.546875 83.390625 134.507812 83.066406 134.425781 82.757812 Z M 136.855469 81.964844 C 137.304688 83.605469 138.808594 84.8125 140.585938 84.8125 C 141.625 84.8125 142.570312 84.402344 143.265625 83.734375 C 141.867188 82.566406 140.074219 81.867188 138.109375 81.867188 C 137.683594 81.867188 137.261719 81.902344 136.855469 81.964844 Z M 136.855469 81.964844 " fill-opacity="1" fill-rule="evenodd"/><path fill="#630e2b" d="M 165.679688 227.328125 C 168.160156 232.082031 170.636719 236.839844 172.960938 241.695312 C 175.285156 246.558594 177.453125 251.519531 179.570312 258.753906 C 181.6875 265.996094 183.753906 275.507812 183.855469 283.980469 C 183.957031 292.457031 182.101562 299.902344 178.742188 306.054688 C 175.386719 312.203125 170.535156 317.066406 166.097656 319.234375 C 161.65625 321.40625 157.628906 320.890625 154.425781 318.511719 C 151.226562 316.136719 148.851562 311.894531 147.867188 305.382812 C 146.886719 298.867188 147.300781 290.082031 149.78125 278.398438 C 152.257812 266.71875 156.800781 252.140625 159.796875 243.144531 C 162.789062 234.152344 164.234375 230.738281 165.679688 227.328125 Z M 165.679688 227.328125 " fill-opacity="1" fill-rule="evenodd"/><path fill="#630e2b" d="M 150.785156 56.8125 C 153.582031 54.808594 160.621094 49.042969 165.417969 46.003906 C 170.214844 42.964844 172.773438 42.640625 175.8125 42.722656 C 178.851562 42.800781 182.367188 43.285156 186.210938 44.882812 C 190.046875 46.484375 194.203125 49.207031 197.960938 51.367188 C 201.71875 53.53125 205.078125 55.128906 207.796875 55.851562 C 210.515625 56.574219 212.597656 56.410156 214.914062 55.773438 C 217.234375 55.128906 219.792969 54.007812 221.949219 53.367188 C 224.109375 52.730469 225.871094 52.566406 227.789062 53.207031 C 229.707031 53.851562 231.785156 55.289062 233.867188 56.730469 C 231.148438 54.007812 228.425781 51.285156 225.46875 49.527344 C 222.511719 47.765625 219.3125 46.964844 215.792969 47.203125 C 212.277344 47.445312 208.4375 48.726562 205.320312 49.125 C 202.199219 49.527344 199.800781 49.042969 196.203125 47.445312 C 192.601562 45.84375 187.804688 43.121094 183.492188 41.679688 C 179.171875 40.242188 175.332031 40.078125 171.894531 40.71875 C 168.457031 41.363281 165.417969 42.800781 161.976562 45.363281 C 158.539062 47.925781 154.703125 51.609375 152.0625 54.332031 C 149.425781 57.050781 147.984375 58.8125 150.785156 56.8125 Z M 150.785156 56.8125 " fill-opacity="1" fill-rule="evenodd"/></svg>